<svg width="24" height="24" viewBox="0 0 24 24" fill="none" xmlns="http://www.w3.org/2000/svg">
<path d="M17.1814 10.7382C17.1813 7.1799 14.2965 4.29548 10.7382 4.29548C7.17995 4.29556 4.29556 7.17995 4.29548 10.7382C4.29548 14.2965 7.1799 17.1813 10.7382 17.1814C14.2965 17.1814 17.1814 14.2965 17.1814 10.7382ZM21.4763 10.7382C21.4763 12.9267 20.821 14.9619 19.6967 16.6594L23.3709 20.3336L23.447 20.4135C24.2089 21.2566 24.1835 22.5584 23.3709 23.3709C22.5584 24.1835 21.2566 24.2089 20.4135 23.447L20.3336 23.3709L16.6594 19.6967C14.9619 20.821 12.9267 21.4763 10.7382 21.4763C4.80769 21.4763 0 16.6687 0 10.7382C7.20764e-05 4.80773 4.80773 7.20718e-05 10.7382 0C16.6687 0 21.4763 4.80769 21.4763 10.7382Z" fill="#651123"/>
</svg>
