<svg width="96" height="48" viewBox="0 0 96 48" fill="none" xmlns="http://www.w3.org/2000/svg">
<path d="M20.5987 7.39752C27.0378 1.45264 36.702 -0.125072 42.4132 5.58502C48.3084 11.4802 46.4392 21.5902 40.0147 28.0147L40.0128 28.0128C37.5566 30.4962 34.5236 32.3255 31.1885 33.3389L30.5167 33.5323C30.4991 33.537 30.4816 33.5417 30.4639 33.546C25.753 34.6676 20.985 33.8149 17.585 30.4151C14.1851 27.0151 13.3325 22.2472 14.4542 17.5362L14.4678 17.4815C15.4321 13.8827 17.3365 10.6052 19.9854 7.98541L20.5987 7.39752ZM39.585 8.4151C35.8803 4.71033 28.389 5.23812 22.8135 10.8135L22.8057 10.8233C20.6659 12.9372 19.1231 15.58 18.3389 18.4835C17.4684 22.1634 18.2178 25.3891 20.4132 27.585C22.6132 29.785 25.8472 30.5317 29.5362 29.6534C32.4317 28.8675 35.0678 27.3292 37.1768 25.1944L37.1846 25.1866C42.76 19.6112 43.2896 12.1199 39.585 8.4151Z" fill="black"/>
<path d="M14.4569 17.5253C14.7192 16.4524 15.8019 15.7943 16.8748 16.0566C17.9477 16.3188 18.6056 17.4018 18.3436 18.4746L14.7245 33.2734L29.5252 29.6562C30.5981 29.3943 31.681 30.0521 31.9432 31.125C32.2055 32.1979 31.5474 33.2806 30.4745 33.5429L13.0155 37.8105L5.41391 45.414C4.63286 46.1951 3.36684 46.1951 2.58579 45.414C1.80474 44.633 1.80474 43.3669 2.58579 42.5859L10.1873 34.9824L14.4569 17.5253Z" fill="black"/>
<path d="M39.9998 46.0001C43.3136 46.0001 45.9998 43.3138 45.9998 40.0001C45.9998 36.6863 43.3136 34.0001 39.9998 34.0001C36.6861 34.0001 33.9998 36.6863 33.9998 40.0001C33.9998 43.3138 36.6861 46.0001 39.9998 46.0001Z" fill="black"/>
<path d="M68.5987 7.39752C75.0378 1.45264 84.702 -0.125072 90.4132 5.58502C96.3084 11.4802 94.4392 21.5902 88.0147 28.0147L88.0128 28.0128C85.5566 30.4962 82.5236 32.3255 79.1885 33.3389L78.5167 33.5323C78.4991 33.537 78.4816 33.5417 78.4639 33.546C73.753 34.6676 68.985 33.8149 65.585 30.4151C62.1851 27.0151 61.3325 22.2472 62.4542 17.5362L62.4678 17.4815C63.4321 13.8827 65.3365 10.6052 67.9854 7.98541L68.5987 7.39752ZM87.585 8.4151C83.8803 4.71033 76.389 5.23812 70.8135 10.8135L70.8057 10.8233C68.6659 12.9372 67.1231 15.58 66.3389 18.4835C65.4684 22.1634 66.2178 25.3891 68.4132 27.585C70.6132 29.785 73.8472 30.5317 77.5362 29.6534C80.4317 28.8675 83.0678 27.3292 85.1768 25.1944L85.1846 25.1866C90.76 19.6112 91.2896 12.1199 87.585 8.4151Z" fill="#FEEFE3"/>
<path d="M62.4569 17.5253C62.7192 16.4524 63.8019 15.7943 64.8748 16.0566C65.9477 16.3188 66.6056 17.4018 66.3436 18.4746L62.7245 33.2734L77.5252 29.6562C78.5981 29.3943 79.681 30.0521 79.9432 31.125C80.2055 32.1979 79.5474 33.2806 78.4745 33.5429L61.0155 37.8105L53.4139 45.414C52.6329 46.1951 51.3668 46.1951 50.5858 45.414C49.8047 44.633 49.8047 43.3669 50.5858 42.5859L58.1873 34.9824L62.4569 17.5253Z" fill="#FEEFE3"/>
<path d="M87.9998 46.0001C91.3136 46.0001 93.9998 43.3138 93.9998 40.0001C93.9998 36.6863 91.3136 34.0001 87.9998 34.0001C84.6861 34.0001 81.9998 36.6863 81.9998 40.0001C81.9998 43.3138 84.6861 46.0001 87.9998 46.0001Z" fill="#FEEFE3"/>
</svg>
