<svg width="96" height="48" viewBox="0 0 96 48" fill="none" xmlns="http://www.w3.org/2000/svg">
<path d="M40.8017 14.4422C40.269 13.2338 39.5696 12.106 38.724 11.0917L34.242 15.5736C35.2913 16.1946 36.5273 16.4217 37.7288 16.2144C38.9302 16.0071 40.0187 15.3789 40.7991 14.4422M32.4214 13.7556L36.9034 9.27367C35.8898 8.42827 34.7629 7.72892 33.5554 7.19597C32.6181 7.97657 31.9895 9.06547 31.7821 10.2675C31.5748 11.4696 31.8023 12.7061 32.424 13.7556M29.1429 11.1431C29.1429 12.8094 29.6726 14.3522 30.57 15.6122L28.5 17.6822L19.5309 8.71053C21.1426 7.53964 22.9827 6.72113 24.9316 6.30823C26.8805 5.89533 28.8945 5.89729 30.8426 6.31397C29.7428 7.68326 29.1432 9.38683 29.1429 11.1431ZM30.318 19.5002L32.388 17.4302C33.648 18.3302 35.1909 18.8573 36.8571 18.8573C38.6131 18.8577 40.3166 18.259 41.6863 17.1602C41.8937 18.1236 41.9983 19.1179 42 20.143C42 23.2544 40.9946 26.1344 39.2897 28.4718L30.318 19.5002ZM37.5874 30.4055L28.5 21.3181L26.9443 22.8739C29.6185 25.9222 31.2595 29.7387 31.632 33.7766C33.8949 33.1518 35.9314 31.9741 37.5874 30.4055ZM14.2209 16.3682C14.8457 14.1053 16.0209 12.0688 17.5894 10.4128L26.682 19.5002L25.1263 21.0559C22.0779 18.3816 18.2588 16.7407 14.2209 16.3682ZM9.85714 18.8573C8.83416 18.8573 7.85309 19.2637 7.12973 19.987C6.40638 20.7104 6 21.6915 6 22.7144V25.2858C6 29.7187 7.76096 33.97 10.8955 37.1045C14.03 40.2391 18.2814 42 22.7143 42H25.2857C26.3087 42 27.2898 41.5936 28.0131 40.8703C28.7365 40.1469 29.1429 39.1659 29.1429 38.1429V35.5715C29.1429 31.1386 27.3819 26.8873 24.2474 23.7528C21.1128 20.6183 16.8615 18.8573 12.4286 18.8573H9.85714ZM14.7326 27.5898C14.852 27.4701 14.9939 27.3751 15.1501 27.3103C15.3063 27.2455 15.4737 27.2121 15.6429 27.2121C15.812 27.2121 15.9794 27.2455 16.1356 27.3103C16.2918 27.3751 16.4337 27.4701 16.5531 27.5898L20.4103 31.4469C20.5298 31.5665 20.6247 31.7084 20.6893 31.8646C20.754 32.0208 20.7873 32.1882 20.7873 32.3572C20.7873 32.5263 20.754 32.6937 20.6893 32.8499C20.6247 33.006 20.5298 33.148 20.4103 33.2675C20.2907 33.387 20.1488 33.4819 19.9926 33.5466C19.8365 33.6112 19.6691 33.6445 19.5 33.6445C19.3309 33.6445 19.1635 33.6112 19.0074 33.5466C18.8512 33.4819 18.7093 33.387 18.5897 33.2675L14.7326 29.4104C14.6128 29.2909 14.5178 29.1491 14.453 28.9929C14.3882 28.8367 14.3548 28.6692 14.3548 28.5001C14.3548 28.331 14.3882 28.1635 14.453 28.0073C14.5178 27.8511 14.6128 27.7093 14.7326 27.5898Z" fill="black"/>
<path d="M88.8017 14.4422C88.269 13.2338 87.5696 12.106 86.724 11.0917L82.242 15.5736C83.2913 16.1946 84.5273 16.4217 85.7288 16.2144C86.9302 16.0071 88.0187 15.3789 88.7991 14.4422M80.4214 13.7556L84.9034 9.27367C83.8898 8.42827 82.7629 7.72892 81.5554 7.19597C80.6181 7.97657 79.9895 9.06547 79.7821 10.2675C79.5748 11.4696 79.8023 12.7061 80.424 13.7556M77.1429 11.1431C77.1429 12.8094 77.6726 14.3522 78.57 15.6122L76.5 17.6822L67.5309 8.71053C69.1426 7.53964 70.9827 6.72113 72.9316 6.30823C74.8805 5.89533 76.8945 5.89729 78.8426 6.31397C77.7428 7.68326 77.1432 9.38683 77.1429 11.1431ZM78.318 19.5002L80.388 17.4302C81.648 18.3302 83.1909 18.8573 84.8571 18.8573C86.6131 18.8577 88.3166 18.259 89.6863 17.1602C89.8937 18.1236 89.9983 19.1179 90 20.143C90 23.2544 88.9946 26.1344 87.2897 28.4718L78.318 19.5002ZM85.5874 30.4055L76.5 21.3181L74.9443 22.8739C77.6185 25.9222 79.2595 29.7387 79.632 33.7766C81.8949 33.1518 83.9314 31.9741 85.5874 30.4055ZM62.2209 16.3682C62.8457 14.1053 64.0209 12.0688 65.5894 10.4128L74.682 19.5002L73.1263 21.0559C70.0779 18.3816 66.2588 16.7407 62.2209 16.3682ZM57.8571 18.8573C56.8342 18.8573 55.8531 19.2637 55.1297 19.987C54.4064 20.7104 54 21.6915 54 22.7144V25.2858C54 29.7187 55.761 33.97 58.8955 37.1045C62.03 40.2391 66.2814 42 70.7143 42H73.2857C74.3087 42 75.2898 41.5936 76.0131 40.8703C76.7365 40.1469 77.1429 39.1659 77.1429 38.1429V35.5715C77.1429 31.1386 75.3819 26.8873 72.2474 23.7528C69.1128 20.6183 64.8615 18.8573 60.4286 18.8573H57.8571ZM62.7326 27.5898C62.852 27.4701 62.9939 27.3751 63.1501 27.3103C63.3063 27.2455 63.4737 27.2121 63.6429 27.2121C63.812 27.2121 63.9794 27.2455 64.1356 27.3103C64.2918 27.3751 64.4337 27.4701 64.5531 27.5898L68.4103 31.4469C68.5298 31.5665 68.6247 31.7084 68.6893 31.8646C68.754 32.0208 68.7873 32.1882 68.7873 32.3572C68.7873 32.5263 68.754 32.6937 68.6893 32.8499C68.6247 33.006 68.5298 33.148 68.4103 33.2675C68.2907 33.387 68.1488 33.4819 67.9926 33.5466C67.8365 33.6112 67.6691 33.6445 67.5 33.6445C67.3309 33.6445 67.1635 33.6112 67.0074 33.5466C66.8512 33.4819 66.7093 33.387 66.5897 33.2675L62.7326 29.4104C62.6128 29.2909 62.5178 29.1491 62.453 28.9929C62.3882 28.8367 62.3548 28.6692 62.3548 28.5001C62.3548 28.331 62.3882 28.1635 62.453 28.0073C62.5178 27.8511 62.6128 27.7093 62.7326 27.5898Z" fill="#FEEFE3"/>
</svg>
