<svg width="96" height="48" viewBox="0 0 96 48" fill="none" xmlns="http://www.w3.org/2000/svg">
<path d="M23.7669 7.07659C24.1035 6.97274 24.4641 6.97454 24.7996 7.08173L38.2033 11.3642C38.5756 11.4831 38.4895 12.0295 38.0984 12.0295H9.97557C9.58252 12.0295 9.49855 11.479 9.87394 11.3631L23.7669 7.07659Z" fill="black"/>
<path d="M7.71429 14.0744C7.71429 13.8862 7.86779 13.7336 8.05714 13.7336H39.9429C40.1322 13.7336 40.2857 13.8862 40.2857 14.0744V16.8011C40.2857 16.9893 40.1322 17.1419 39.9429 17.1419H8.05714C7.86779 17.1419 7.71429 16.9893 7.71429 16.8011V14.0744Z" fill="black"/>
<path d="M6 37.9325C6 37.7443 6.1535 37.5917 6.34286 37.5917H41.6571C41.8465 37.5917 42 37.7443 42 37.9325V40.6592C42 40.8474 41.8465 41 41.6571 41H6.34286C6.1535 41 6 40.8474 6 40.6592V37.9325Z" fill="black"/>
<path d="M10.2694 19.1699C10.2786 18.9885 10.4292 18.8461 10.6119 18.8461H15.1024C15.2851 18.8461 15.4357 18.9885 15.4449 19.1699L16.2677 35.5297C16.2775 35.7244 16.1214 35.8876 15.9253 35.8876H9.789C9.59292 35.8876 9.43678 35.7244 9.44657 35.5297L10.2694 19.1699Z" fill="black"/>
<path d="M21.4123 19.1699C21.4214 18.9885 21.572 18.8461 21.7547 18.8461H26.2453C26.428 18.8461 26.5786 18.9885 26.5877 19.1699L27.4106 35.5297C27.4204 35.7244 27.2642 35.8876 27.0681 35.8876H20.9319C20.7358 35.8876 20.5796 35.7244 20.5894 35.5297L21.4123 19.1699Z" fill="black"/>
<path d="M32.5551 19.1699C32.5643 18.9885 32.7149 18.8461 32.8976 18.8461H37.3881C37.5708 18.8461 37.7214 18.9885 37.7306 19.1699L38.5534 35.5297C38.5632 35.7244 38.4071 35.8876 38.211 35.8876H32.0747C31.8786 35.8876 31.7225 35.7244 31.7323 35.5297L32.5551 19.1699Z" fill="black"/>
<path d="M71.7669 7.07659C72.1035 6.97274 72.4641 6.97454 72.7996 7.08173L86.2033 11.3642C86.5756 11.4831 86.4895 12.0295 86.0984 12.0295H57.9756C57.5825 12.0295 57.4986 11.479 57.8739 11.3631L71.7669 7.07659Z" fill="#FEEFE3"/>
<path d="M55.7143 14.0744C55.7143 13.8862 55.8678 13.7336 56.0571 13.7336H87.9429C88.1322 13.7336 88.2857 13.8862 88.2857 14.0744V16.8011C88.2857 16.9893 88.1322 17.1419 87.9429 17.1419H56.0571C55.8678 17.1419 55.7143 16.9893 55.7143 16.8011V14.0744Z" fill="#FEEFE3"/>
<path d="M54 37.9325C54 37.7443 54.1535 37.5917 54.3429 37.5917H89.6571C89.8465 37.5917 90 37.7443 90 37.9325V40.6592C90 40.8474 89.8465 41 89.6571 41H54.3429C54.1535 41 54 40.8474 54 40.6592V37.9325Z" fill="#FEEFE3"/>
<path d="M58.2694 19.1699C58.2786 18.9885 58.4292 18.8461 58.6119 18.8461H63.1024C63.2851 18.8461 63.4357 18.9885 63.4449 19.1699L64.2677 35.5297C64.2775 35.7244 64.1214 35.8876 63.9253 35.8876H57.789C57.5929 35.8876 57.4368 35.7244 57.4466 35.5297L58.2694 19.1699Z" fill="#FEEFE3"/>
<path d="M69.4123 19.1699C69.4214 18.9885 69.572 18.8461 69.7547 18.8461H74.2453C74.428 18.8461 74.5786 18.9885 74.5877 19.1699L75.4106 35.5297C75.4204 35.7244 75.2642 35.8876 75.0681 35.8876H68.9319C68.7358 35.8876 68.5796 35.7244 68.5894 35.5297L69.4123 19.1699Z" fill="#FEEFE3"/>
<path d="M80.5551 19.1699C80.5643 18.9885 80.7149 18.8461 80.8976 18.8461H85.3881C85.5708 18.8461 85.7214 18.9885 85.7306 19.1699L86.5534 35.5297C86.5632 35.7244 86.4071 35.8876 86.211 35.8876H80.0747C79.8786 35.8876 79.7225 35.7244 79.7323 35.5297L80.5551 19.1699Z" fill="#FEEFE3"/>
</svg>
