<svg width="96" height="48" viewBox="0 0 96 48" fill="none" xmlns="http://www.w3.org/2000/svg">
<path d="M6.48198 17.5808C7.11328 16.9881 8.13683 16.9881 8.76813 17.5808L14.4277 22.8947C15.059 23.4874 15.059 24.4484 14.4277 25.0412C13.7964 25.6339 12.7729 25.6339 12.1416 25.0412L6.48198 19.7273C5.85068 19.1346 5.85068 18.1736 6.48198 17.5808Z" fill="black"/>
<path d="M6.46748 30.6513C5.84417 30.0661 5.84417 29.1172 6.46748 28.532L12.2201 23.1308C12.7889 22.5968 13.706 22.5818 14.2942 23.0969C14.9013 23.6285 14.93 24.523 14.358 25.0879L8.75289 30.6241C8.13466 31.2347 7.10198 31.247 6.46748 30.6513Z" fill="black"/>
<path d="M14.1111 9.17573C14.1111 8.40443 14.777 7.77918 15.5985 7.77918C16.4199 7.77918 17.0859 8.40443 17.0859 9.17573V14.7619C17.0859 15.5332 16.4199 16.1585 15.5985 16.1585C14.777 16.1585 14.1111 15.5332 14.1111 14.7619V9.17573Z" fill="black"/>
<path d="M14.1111 38.5032C14.1111 39.2745 14.777 39.8997 15.5985 39.8997C16.4199 39.8997 17.0859 39.2745 17.0859 38.5032V32.917C17.0859 32.1457 16.4199 31.5205 15.5985 31.5205C14.777 31.5205 14.1111 32.1457 14.1111 32.917V38.5032Z" fill="black"/>
<path d="M29.357 6.69892C29.357 6.20947 29.8794 5.8719 30.3663 6.0467L41.5219 10.0515C41.8098 10.1549 42 10.4143 42 10.7037V36.9881C42 37.2711 41.8181 37.5261 41.5395 37.6338L30.3839 41.9467C29.8944 42.1359 29.357 41.798 29.357 41.301V6.69892Z" fill="black"/>
<path d="M26.754 7.77918C27.5755 7.77918 28.2415 8.40443 28.2415 9.17573C28.2415 9.94702 27.5755 10.5723 26.754 10.5723H15.5985C14.777 10.5723 14.1111 9.94702 14.1111 9.17573C14.1111 8.40443 14.777 7.77918 15.5985 7.77918H26.754Z" fill="black"/>
<path d="M26.754 37.1066C27.5755 37.1066 28.2415 37.7319 28.2415 38.5032C28.2415 39.2745 27.5755 39.8997 26.754 39.8997L15.5985 39.8997C14.777 39.8997 14.1111 39.2745 14.1111 38.5032C14.1111 37.7319 14.777 37.1066 15.5985 37.1066H26.754Z" fill="black"/>
<path d="M54.482 17.5808C55.1133 16.9881 56.1368 16.9881 56.7681 17.5808L62.4277 22.8947C63.059 23.4874 63.059 24.4484 62.4277 25.0412C61.7964 25.6339 60.7729 25.6339 60.1416 25.0412L54.482 19.7273C53.8507 19.1346 53.8507 18.1736 54.482 17.5808Z" fill="#FEEFE3"/>
<path d="M54.4675 30.6513C53.8442 30.0661 53.8442 29.1172 54.4675 28.532L60.2201 23.1308C60.7889 22.5968 61.706 22.5818 62.2942 23.0969C62.9013 23.6285 62.93 24.523 62.358 25.0879L56.7529 30.6241C56.1347 31.2347 55.102 31.247 54.4675 30.6513Z" fill="#FEEFE3"/>
<path d="M62.1111 9.17573C62.1111 8.40443 62.777 7.77918 63.5985 7.77918C64.4199 7.77918 65.0859 8.40443 65.0859 9.17573V14.7619C65.0859 15.5332 64.4199 16.1585 63.5985 16.1585C62.777 16.1585 62.1111 15.5332 62.1111 14.7619V9.17573Z" fill="#FEEFE3"/>
<path d="M62.1111 38.5032C62.1111 39.2745 62.777 39.8997 63.5985 39.8997C64.4199 39.8997 65.0859 39.2745 65.0859 38.5032V32.917C65.0859 32.1457 64.4199 31.5205 63.5985 31.5205C62.777 31.5205 62.1111 32.1457 62.1111 32.917V38.5032Z" fill="#FEEFE3"/>
<path d="M77.357 6.69892C77.357 6.20947 77.8794 5.8719 78.3663 6.0467L89.5219 10.0515C89.8098 10.1549 90 10.4143 90 10.7037V36.9881C90 37.2711 89.8181 37.5261 89.5395 37.6338L78.3839 41.9467C77.8944 42.1359 77.357 41.798 77.357 41.301V6.69892Z" fill="#FEEFE3"/>
<path d="M74.754 7.77918C75.5755 7.77918 76.2415 8.40443 76.2415 9.17573C76.2415 9.94702 75.5755 10.5723 74.754 10.5723H63.5985C62.777 10.5723 62.1111 9.94702 62.1111 9.17573C62.1111 8.40443 62.777 7.77918 63.5985 7.77918H74.754Z" fill="#FEEFE3"/>
<path d="M74.754 37.1066C75.5755 37.1066 76.2415 37.7319 76.2415 38.5032C76.2415 39.2745 75.5755 39.8997 74.754 39.8997L63.5985 39.8997C62.777 39.8997 62.1111 39.2745 62.1111 38.5032C62.1111 37.7319 62.777 37.1066 63.5985 37.1066H74.754Z" fill="#FEEFE3"/>
</svg>
