<svg width="96" height="48" viewBox="0 0 96 48" fill="none" xmlns="http://www.w3.org/2000/svg">
<path d="M22.3337 27.5579C22.3337 26.6222 23.0896 25.8636 24.022 25.8636C24.9545 25.8636 25.7104 26.6222 25.7104 27.5579C25.7104 30.7765 25.2068 32.5525 24.1946 33.7248C23.7639 34.2236 23.2369 34.5841 23.0405 34.7318C23.0614 34.7413 23.0827 34.7526 23.1053 34.7627C23.5049 34.9403 24.2233 35.2258 24.8409 35.6021C25.4964 36.0014 26.2362 36.6097 26.6809 37.5798C26.9278 38.1184 27.0473 38.7436 26.8909 39.3953C26.739 40.0275 26.3773 40.4759 26.0588 40.7708C25.7489 41.0576 25.4041 41.2685 25.1465 41.4149C25.0119 41.4914 24.877 41.5632 24.7618 41.6245C24.74 41.6361 24.7185 41.6467 24.698 41.6576C25.3106 42.3221 25.2964 43.3579 24.653 44.0037C24.035 44.6238 23.0573 44.6629 22.3942 44.1206L22.2656 44.0037L21.9798 43.7004C21.3174 42.9549 20.727 41.9462 21.0499 40.7686C21.2218 40.1419 21.6027 39.7117 21.9138 39.4394C22.2202 39.1714 22.5584 38.9715 22.8075 38.8328C22.9373 38.7605 23.07 38.6895 23.1801 38.6309C23.1999 38.6204 23.2185 38.609 23.2372 38.5989C23.1924 38.5674 23.1443 38.5323 23.0889 38.4986C22.7159 38.2714 22.3229 38.1199 21.738 37.8599C21.2991 37.6648 20.4823 37.3049 19.9441 36.6367C19.6288 36.2451 19.4007 35.7461 19.3627 35.1554C19.3266 34.5927 19.471 34.0737 19.6759 33.6266L19.8188 33.3431C20.1682 32.7175 20.6095 32.3336 20.9609 32.0625C21.3879 31.7331 21.4884 31.6838 21.6424 31.5055C21.8345 31.2829 22.3337 30.5513 22.3337 27.5579Z" fill="black"/>
<path fill-rule="evenodd" clip-rule="evenodd" d="M23.9293 3.5C32.626 3.50034 36.9997 9.98652 37 16.2415C37 22.4967 30.9394 33.938 23.9293 33.9388C16.9188 33.9388 11 22.4969 11 16.2415C11.0003 9.98636 15.9373 3.5 23.9293 3.5ZM22.9173 6.76136C20.5787 6.76136 18.3992 8.18548 16.8525 10.1519C15.2908 12.1377 14.2501 14.8183 14.25 17.632C14.25 18.2322 14.7347 18.72 15.3327 18.7203C15.931 18.7203 16.4173 18.2324 16.4173 17.632C16.4174 15.3413 17.2719 13.1285 18.5537 11.4987C19.8506 9.84999 21.4646 8.93621 22.9173 8.93621C23.5153 8.93588 24 8.44808 24 7.84788C23.9997 7.24796 23.5151 6.76169 22.9173 6.76136Z" fill="black"/>
<path d="M70.3337 27.5579C70.3337 26.6222 71.0896 25.8636 72.022 25.8636C72.9545 25.8636 73.7104 26.6222 73.7104 27.5579C73.7104 30.7765 73.2068 32.5525 72.1946 33.7248C71.7639 34.2236 71.2369 34.5841 71.0405 34.7318C71.0614 34.7413 71.0827 34.7526 71.1053 34.7627C71.5049 34.9403 72.2233 35.2258 72.8409 35.6021C73.4964 36.0014 74.2362 36.6097 74.6809 37.5798C74.9278 38.1184 75.0473 38.7436 74.8909 39.3953C74.739 40.0275 74.3773 40.4759 74.0588 40.7708C73.7489 41.0576 73.4041 41.2685 73.1465 41.4149C73.0119 41.4914 72.877 41.5632 72.7618 41.6245C72.74 41.6361 72.7185 41.6467 72.698 41.6576C73.3106 42.3221 73.2964 43.3579 72.653 44.0037C72.035 44.6238 71.0573 44.6629 70.3942 44.1206L70.2656 44.0037L69.9798 43.7004C69.3174 42.9549 68.727 41.9462 69.0499 40.7686C69.2218 40.1419 69.6027 39.7117 69.9138 39.4394C70.2202 39.1714 70.5584 38.9715 70.8075 38.8328C70.9373 38.7605 71.07 38.6895 71.1801 38.6309C71.1999 38.6204 71.2185 38.609 71.2372 38.5989C71.1924 38.5674 71.1443 38.5323 71.0889 38.4986C70.7159 38.2714 70.3229 38.1199 69.738 37.8599C69.2991 37.6648 68.4823 37.3049 67.9441 36.6367C67.6288 36.2451 67.4007 35.7461 67.3627 35.1554C67.3266 34.5927 67.471 34.0737 67.6759 33.6266L67.8188 33.3431C68.1682 32.7175 68.6095 32.3336 68.9609 32.0625C69.3879 31.7331 69.4884 31.6838 69.6424 31.5055C69.8345 31.2829 70.3337 30.5513 70.3337 27.5579Z" fill="#FEEFE3"/>
<path fill-rule="evenodd" clip-rule="evenodd" d="M71.9293 3.5C80.626 3.50034 84.9997 9.98652 85 16.2415C85 22.4967 78.9394 33.938 71.9293 33.9388C64.9188 33.9388 59 22.4969 59 16.2415C59.0003 9.98636 63.9373 3.5 71.9293 3.5ZM70.9173 6.76136C68.5787 6.76136 66.3992 8.18548 64.8525 10.1519C63.2908 12.1377 62.2501 14.8183 62.25 17.632C62.25 18.2322 62.7347 18.72 63.3327 18.7203C63.931 18.7203 64.4173 18.2324 64.4173 17.632C64.4174 15.3413 65.2719 13.1285 66.5537 11.4987C67.8506 9.84999 69.4646 8.93621 70.9173 8.93621C71.5153 8.93588 72 8.44808 72 7.84788C71.9997 7.24796 71.5151 6.76169 70.9173 6.76136Z" fill="#FEEFE3"/>
</svg>
