<svg width="96" height="48" viewBox="0 0 96 48" fill="none" xmlns="http://www.w3.org/2000/svg">
<path d="M17.2493 8.07957C17.2493 6.93105 18.1804 6 19.3289 6H28.6697C29.8182 6 30.7493 6.93106 30.7493 8.07957V39.9204C30.7493 41.0689 29.8182 42 28.6697 42H19.3289C18.1804 42 17.2493 41.0689 17.2493 39.9204V8.07957Z" fill="black"/>
<path d="M39.9204 17.2501C41.0689 17.2501 42 18.1812 42 19.3297V28.6705C42 29.8191 41.0689 30.7501 39.9204 30.7501L8.07957 30.7501C6.93105 30.7501 6 29.8191 6 28.6705L6 19.3297C6 18.1812 6.93106 17.2501 8.07957 17.2501L39.9204 17.2501Z" fill="black"/>
<path d="M65.2493 8.07957C65.2493 6.93105 66.1804 6 67.3289 6H76.6697C77.8182 6 78.7493 6.93106 78.7493 8.07957V39.9204C78.7493 41.0689 77.8182 42 76.6697 42H67.3289C66.1804 42 65.2493 41.0689 65.2493 39.9204V8.07957Z" fill="#FEEFE3"/>
<path d="M87.9204 17.2501C89.0689 17.2501 90 18.1812 90 19.3297V28.6705C90 29.8191 89.0689 30.7501 87.9204 30.7501L56.0796 30.7501C54.9311 30.7501 54 29.8191 54 28.6705L54 19.3297C54 18.1812 54.9311 17.2501 56.0796 17.2501L87.9204 17.2501Z" fill="#FEEFE3"/>
</svg>
