<svg width="96" height="48" viewBox="0 0 96 48" fill="none" xmlns="http://www.w3.org/2000/svg">
<path d="M10 20.5C9.07174 20.5 8.1815 20.8687 7.52513 21.5251C6.86875 22.1815 6.5 23.0717 6.5 24C6.5 24.9283 6.86875 25.8185 7.52513 26.4749C8.1815 27.1313 9.07174 27.5 10 27.5C10.9283 27.5 11.8185 27.1313 12.4749 26.4749C13.1313 25.8185 13.5 24.9283 13.5 24C13.5 23.0717 13.1313 22.1815 12.4749 21.5251C11.8185 20.8687 10.9283 20.5 10 20.5ZM20.5 24C20.5 23.0717 20.8687 22.1815 21.5251 21.5251C22.1815 20.8687 23.0717 20.5 24 20.5C24.9283 20.5 25.8185 20.8687 26.4749 21.5251C27.1312 22.1815 27.5 23.0717 27.5 24C27.5 24.9283 27.1312 25.8185 26.4749 26.4749C25.8185 27.1313 24.9283 27.5 24 27.5C23.0717 27.5 22.1815 27.1313 21.5251 26.4749C20.8687 25.8185 20.5 24.9283 20.5 24ZM34.5 24C34.5 23.0717 34.8688 22.1815 35.5251 21.5251C36.1815 20.8687 37.0717 20.5 38 20.5C38.9283 20.5 39.8185 20.8687 40.4749 21.5251C41.1312 22.1815 41.5 23.0717 41.5 24C41.5 24.9283 41.1312 25.8185 40.4749 26.4749C39.8185 27.1313 38.9283 27.5 38 27.5C37.0717 27.5 36.1815 27.1313 35.5251 26.4749C34.8688 25.8185 34.5 24.9283 34.5 24Z" fill="black"/>
<path d="M58 20.5C57.0717 20.5 56.1815 20.8687 55.5251 21.5251C54.8687 22.1815 54.5 23.0717 54.5 24C54.5 24.9283 54.8687 25.8185 55.5251 26.4749C56.1815 27.1313 57.0717 27.5 58 27.5C58.9283 27.5 59.8185 27.1313 60.4749 26.4749C61.1313 25.8185 61.5 24.9283 61.5 24C61.5 23.0717 61.1313 22.1815 60.4749 21.5251C59.8185 20.8687 58.9283 20.5 58 20.5ZM68.5 24C68.5 23.0717 68.8687 22.1815 69.5251 21.5251C70.1815 20.8687 71.0717 20.5 72 20.5C72.9283 20.5 73.8185 20.8687 74.4749 21.5251C75.1313 22.1815 75.5 23.0717 75.5 24C75.5 24.9283 75.1313 25.8185 74.4749 26.4749C73.8185 27.1313 72.9283 27.5 72 27.5C71.0717 27.5 70.1815 27.1313 69.5251 26.4749C68.8687 25.8185 68.5 24.9283 68.5 24ZM82.5 24C82.5 23.0717 82.8687 22.1815 83.5251 21.5251C84.1815 20.8687 85.0717 20.5 86 20.5C86.9283 20.5 87.8185 20.8687 88.4749 21.5251C89.1312 22.1815 89.5 23.0717 89.5 24C89.5 24.9283 89.1312 25.8185 88.4749 26.4749C87.8185 27.1313 86.9283 27.5 86 27.5C85.0717 27.5 84.1815 27.1313 83.5251 26.4749C82.8687 25.8185 82.5 24.9283 82.5 24Z" fill="#FEEFE3"/>
</svg>
