<svg width="72" height="36" viewBox="0 0 72 36" fill="none" xmlns="http://www.w3.org/2000/svg">
<path d="M17.293 8.29279C17.4805 8.10532 17.7348 8 18 8C18.2652 8 18.5195 8.10532 18.707 8.29279L21.707 11.2928C21.8892 11.4814 21.99 11.734 21.9877 11.9962C21.9854 12.2584 21.8802 12.5092 21.6948 12.6946C21.5094 12.88 21.2586 12.9852 20.9964 12.9875C20.7342 12.9897 20.4816 12.8889 20.293 12.7068L19 11.4138V20.9998C19 21.265 18.8946 21.5194 18.7071 21.7069C18.5196 21.8944 18.2652 21.9998 18 21.9998C17.7348 21.9998 17.4804 21.8944 17.2929 21.7069C17.1054 21.5194 17 21.265 17 20.9998V11.4138L15.707 12.7068C15.5184 12.8889 15.2658 12.9897 15.0036 12.9875C14.7414 12.9852 14.4906 12.88 14.3052 12.6946C14.1198 12.5092 14.0146 12.2584 14.0123 11.9962C14.01 11.734 14.1108 11.4814 14.293 11.2928L17.293 8.29279ZM10 16.9998C10 16.4694 10.2107 15.9606 10.5858 15.5856C10.9609 15.2105 11.4696 14.9998 12 14.9998H14C14.2652 14.9998 14.5196 15.1051 14.7071 15.2927C14.8946 15.4802 15 15.7346 15 15.9998C15 16.265 14.8946 16.5194 14.7071 16.7069C14.5196 16.8944 14.2652 16.9998 14 16.9998H12V25.9998H24V16.9998H22C21.7348 16.9998 21.4804 16.8944 21.2929 16.7069C21.1054 16.5194 21 16.265 21 15.9998C21 15.7346 21.1054 15.4802 21.2929 15.2927C21.4804 15.1051 21.7348 14.9998 22 14.9998H24C24.5304 14.9998 25.0391 15.2105 25.4142 15.5856C25.7893 15.9606 26 16.4694 26 16.9998V25.9998C26 26.5302 25.7893 27.0389 25.4142 27.414C25.0391 27.7891 24.5304 27.9998 24 27.9998H12C11.4696 27.9998 10.9609 27.7891 10.5858 27.414C10.2107 27.0389 10 26.5302 10 25.9998V16.9998Z" fill="black"/>
<path d="M53.293 8.29279C53.4805 8.10532 53.7348 8 54 8C54.2652 8 54.5195 8.10532 54.707 8.29279L57.707 11.2928C57.8892 11.4814 57.99 11.734 57.9877 11.9962C57.9854 12.2584 57.8802 12.5092 57.6948 12.6946C57.5094 12.88 57.2586 12.9852 56.9964 12.9875C56.7342 12.9897 56.4816 12.8889 56.293 12.7068L55 11.4138V20.9998C55 21.265 54.8946 21.5194 54.7071 21.7069C54.5196 21.8944 54.2652 21.9998 54 21.9998C53.7348 21.9998 53.4804 21.8944 53.2929 21.7069C53.1054 21.5194 53 21.265 53 20.9998V11.4138L51.707 12.7068C51.5184 12.8889 51.2658 12.9897 51.0036 12.9875C50.7414 12.9852 50.4906 12.88 50.3052 12.6946C50.1198 12.5092 50.0146 12.2584 50.0123 11.9962C50.01 11.734 50.1108 11.4814 50.293 11.2928L53.293 8.29279ZM46 16.9998C46 16.4694 46.2107 15.9606 46.5858 15.5856C46.9609 15.2105 47.4696 14.9998 48 14.9998H50C50.2652 14.9998 50.5196 15.1051 50.7071 15.2927C50.8946 15.4802 51 15.7346 51 15.9998C51 16.265 50.8946 16.5194 50.7071 16.7069C50.5196 16.8944 50.2652 16.9998 50 16.9998H48V25.9998H60V16.9998H58C57.7348 16.9998 57.4804 16.8944 57.2929 16.7069C57.1054 16.5194 57 16.265 57 15.9998C57 15.7346 57.1054 15.4802 57.2929 15.2927C57.4804 15.1051 57.7348 14.9998 58 14.9998H60C60.5304 14.9998 61.0391 15.2105 61.4142 15.5856C61.7893 15.9606 62 16.4694 62 16.9998V25.9998C62 26.5302 61.7893 27.0389 61.4142 27.414C61.0391 27.7891 60.5304 27.9998 60 27.9998H48C47.4696 27.9998 46.9609 27.7891 46.5858 27.414C46.2107 27.0389 46 26.5302 46 25.9998V16.9998Z" fill="#FEEFE3"/>
</svg>
