<svg width="96" height="48" viewBox="0 0 96 48" fill="none" xmlns="http://www.w3.org/2000/svg">
<path d="M43.2771 19.8072C43.759 20.2892 44 20.8675 44 21.5422V26.4578C44 27.1325 43.759 27.7108 43.2771 28.1928C42.7952 28.6747 42.2169 28.9157 41.5422 28.9157H30.9157V39.5422C30.9157 40.2169 30.6747 40.7952 30.1928 41.2771C29.7108 41.759 29.1325 42 28.4578 42H23.5422C22.8675 42 22.2892 41.759 21.8072 41.2771C21.3253 40.7952 21.0843 40.2169 21.0843 39.5422L21.0843 28.9157H10.4578C9.78313 28.9157 9.20482 28.6747 8.72289 28.1928C8.24096 27.7108 8 27.1325 8 26.4578V21.5422C8 20.8675 8.24096 20.2892 8.72289 19.8072C9.20482 19.3253 9.78313 19.0843 10.4578 19.0843H21.0843L21.0843 8.45783C21.0843 7.78313 21.3253 7.20482 21.8072 6.72289C22.2892 6.24096 22.8675 6 23.5422 6L28.4578 6C29.1325 6 29.7108 6.24096 30.1928 6.72289C30.6747 7.20482 30.9157 7.78313 30.9157 8.45783V19.0843H41.5422C42.2169 19.0843 42.7952 19.3253 43.2771 19.8072Z" fill="#303130"/>
<path d="M91.2771 19.8072C91.759 20.2892 92 20.8675 92 21.5422V26.4578C92 27.1325 91.759 27.7108 91.2771 28.1928C90.7952 28.6747 90.2169 28.9157 89.5422 28.9157H78.9157V39.5422C78.9157 40.2169 78.6747 40.7952 78.1928 41.2771C77.7108 41.759 77.1325 42 76.4578 42H71.5422C70.8675 42 70.2892 41.759 69.8072 41.2771C69.3253 40.7952 69.0843 40.2169 69.0843 39.5422L69.0843 28.9157H58.4578C57.7831 28.9157 57.2048 28.6747 56.7229 28.1928C56.241 27.7108 56 27.1325 56 26.4578V21.5422C56 20.8675 56.241 20.2892 56.7229 19.8072C57.2048 19.3253 57.7831 19.0843 58.4578 19.0843H69.0843L69.0843 8.45783C69.0843 7.78313 69.3253 7.20482 69.8072 6.72289C70.2892 6.24096 70.8675 6 71.5422 6L76.4578 6C77.1325 6 77.7108 6.24096 78.1928 6.72289C78.6747 7.20482 78.9157 7.78313 78.9157 8.45783V19.0843H89.5422C90.2169 19.0843 90.7952 19.3253 91.2771 19.8072Z" fill="#FEEFE3"/>
</svg>
