<svg width="84" height="42" viewBox="0 0 84 42" fill="none" xmlns="http://www.w3.org/2000/svg">
<circle cx="21" cy="21" r="19.4726" stroke="black" stroke-width="3.0547"/>
<path d="M21.5495 23.2408C20.4463 23.784 18.7914 25.4186 18.7914 27.1608C18.7914 28.9029 24.3075 27.9694 24.3075 29.7121C24.3075 31.4537 18.2398 32.2008 18.2398 32.2008M26.5139 16.5208C27.0655 12.0408 24.9292 9.80078 21.0679 9.80078C17.2067 9.80078 14.9302 12.6008 15.4818 16.5208C16.0334 20.4408 19.4837 23.2408 21.0679 23.2408C22.6521 23.2408 25.9623 21.0008 26.5139 16.5208Z" stroke="black" stroke-width="2.58791" stroke-linecap="round" stroke-linejoin="round"/>
<circle cx="63" cy="21" r="19.4726" stroke="white" stroke-width="3.0547"/>
<path d="M63.5495 23.2408C62.4463 23.784 60.7914 25.4186 60.7914 27.1608C60.7914 28.9029 66.3075 27.9694 66.3075 29.7121C66.3075 31.4537 60.2398 32.2008 60.2398 32.2008M68.5139 16.5208C69.0655 12.0408 66.9292 9.80078 63.0679 9.80078C59.2067 9.80078 56.9302 12.6008 57.4818 16.5208C58.0334 20.4408 61.4837 23.2408 63.0679 23.2408C64.6521 23.2408 67.9623 21.0008 68.5139 16.5208Z" stroke="white" stroke-width="2.58791" stroke-linecap="round" stroke-linejoin="round"/>
</svg>
