<svg width="53" height="53" viewBox="0 0 53 53" fill="none" xmlns="http://www.w3.org/2000/svg">
<path d="M26.5 0C27.4147 0 28.1562 0.741528 28.1562 1.65625V3.37074C39.6423 4.18137 48.8186 13.3577 49.6293 24.8438H51.3438C52.2585 24.8438 53 25.5853 53 26.5C53 27.4147 52.2585 28.1562 51.3438 28.1562H49.6293C48.8186 39.6423 39.6423 48.8186 28.1562 49.6293V51.3438C28.1562 52.2585 27.4147 53 26.5 53C25.5853 53 24.8438 52.2585 24.8438 51.3438V49.6293C13.3577 48.8186 4.18137 39.6423 3.37074 28.1562H1.65625C0.741528 28.1562 0 27.4147 0 26.5C0 25.5853 0.741528 24.8438 1.65625 24.8438H3.37074C4.18137 13.3577 13.3577 4.18137 24.8438 3.37074V1.65625C24.8438 0.741528 25.5853 0 26.5 0ZM24.8438 6.69303C15.1881 7.4896 7.4896 15.1881 6.69303 24.8438H10.0193C10.7962 17.0189 17.0189 10.7962 24.8438 10.0193V6.69303ZM28.1562 10.0193C35.9811 10.7962 42.2038 17.0189 42.9807 24.8438H46.307C45.5104 15.1881 37.8119 7.4896 28.1562 6.69303V10.0193ZM42.9807 28.1562C42.2038 35.9811 35.9811 42.2038 28.1562 42.9807V46.307C37.8119 45.5104 45.5104 37.8119 46.307 28.1562H42.9807ZM24.8438 42.9807C17.0189 42.2038 10.7962 35.9811 10.0193 28.1562H6.69303C7.4896 37.8119 15.1881 45.5104 24.8438 46.307V42.9807ZM33.125 26.5C33.125 22.8411 30.1589 19.875 26.5 19.875C22.8411 19.875 19.875 22.8411 19.875 26.5C19.875 30.1589 22.8411 33.125 26.5 33.125C30.1589 33.125 33.125 30.1589 33.125 26.5Z" fill="white"/>
<path d="M36 26.5C36 31.7467 31.299 36 25.5 36C19.701 36 15 31.7467 15 26.5C15 21.2533 19.701 17 25.5 17C31.299 17 36 21.2533 36 26.5Z" fill="white"/>
</svg>
