<svg width="96" height="48" viewBox="0 0 96 48" fill="none" xmlns="http://www.w3.org/2000/svg">
<path d="M25.5 41.5C24.8959 41.5 24.4063 41.0103 24.4063 40.4062L24.4063 39.274C16.8211 38.7387 10.7613 32.6789 10.226 25.0937L9.09375 25.0937C8.48969 25.0937 8 24.6041 8 24C8 23.3959 8.48969 22.9062 9.09375 22.9062L10.226 22.9062C10.7613 15.3211 16.8211 9.26128 24.4063 8.72596L24.4063 7.59375C24.4063 6.98969 24.8959 6.5 25.5 6.5C26.1041 6.5 26.5938 6.98969 26.5938 7.59375L26.5938 8.72596C34.1789 9.26128 40.2387 15.3211 40.774 22.9062L41.9063 22.9062C42.5103 22.9062 43 23.3959 43 24C43 24.6041 42.5103 25.0937 41.9063 25.0937L40.774 25.0937C40.2387 32.6789 34.1789 38.7387 26.5938 39.274L26.5938 40.4062C26.5938 41.0103 26.1041 41.5 25.5 41.5ZM26.5938 37.0801C32.9701 36.554 38.054 31.4701 38.5801 25.0937L36.3835 25.0937C35.8705 30.2611 31.7611 34.3705 26.5938 34.8835L26.5938 37.0801ZM24.4063 34.8835C19.2389 34.3705 15.1295 30.2611 14.6165 25.0937L12.4199 25.0937C12.946 31.4701 18.0299 36.554 24.4063 37.0801L24.4063 34.8835ZM14.6165 22.9062C15.1295 17.7389 19.2389 13.6295 24.4063 13.1165L24.4063 10.9199C18.0299 11.446 12.946 16.5299 12.4199 22.9062L14.6165 22.9062ZM26.5938 13.1165C31.7611 13.6295 35.8705 17.7389 36.3835 22.9062L38.5801 22.9062C38.054 16.5299 32.9701 11.446 26.5938 10.9199L26.5938 13.1165ZM21.125 24C21.125 26.4162 23.0838 28.375 25.5 28.375C27.9162 28.375 29.875 26.4162 29.875 24C29.875 21.5838 27.9162 19.625 25.5 19.625C23.0838 19.625 21.125 21.5838 21.125 24Z" fill="#303130"/>
<path d="M19.2264 24C19.2264 20.5352 22.3309 17.7264 26.1604 17.7264C29.9899 17.7264 33.0943 20.5352 33.0943 24C33.0943 27.4648 29.9899 30.2736 26.1604 30.2736C22.3309 30.2736 19.2264 27.4648 19.2264 24Z" fill="#303130"/>
<path d="M73.5 41.5C72.8959 41.5 72.4063 41.0103 72.4063 40.4062L72.4063 39.274C64.8211 38.7387 58.7613 32.6789 58.226 25.0937L57.0938 25.0937C56.4897 25.0937 56 24.6041 56 24C56 23.3959 56.4897 22.9062 57.0938 22.9062L58.226 22.9062C58.7613 15.3211 64.8211 9.26128 72.4063 8.72596L72.4063 7.59375C72.4063 6.98969 72.8959 6.5 73.5 6.5C74.1041 6.5 74.5938 6.98969 74.5938 7.59375L74.5938 8.72596C82.1789 9.26128 88.2387 15.3211 88.774 22.9062L89.9063 22.9062C90.5103 22.9062 91 23.3959 91 24C91 24.6041 90.5103 25.0937 89.9063 25.0937L88.774 25.0937C88.2387 32.6789 82.1789 38.7387 74.5938 39.274L74.5938 40.4062C74.5938 41.0103 74.1041 41.5 73.5 41.5ZM74.5938 37.0801C80.9701 36.554 86.054 31.4701 86.5801 25.0937L84.3835 25.0937C83.8705 30.2611 79.7611 34.3705 74.5938 34.8835L74.5938 37.0801ZM72.4063 34.8835C67.2389 34.3705 63.1295 30.2611 62.6165 25.0937L60.4199 25.0937C60.946 31.4701 66.0299 36.554 72.4063 37.0801L72.4063 34.8835ZM62.6165 22.9062C63.1295 17.7389 67.2389 13.6295 72.4063 13.1165L72.4063 10.9199C66.0299 11.446 60.946 16.5299 60.4199 22.9062L62.6165 22.9062ZM74.5938 13.1165C79.7611 13.6295 83.8705 17.7389 84.3835 22.9062L86.5801 22.9062C86.054 16.5299 80.9701 11.446 74.5938 10.9199L74.5938 13.1165ZM69.125 24C69.125 26.4162 71.0838 28.375 73.5 28.375C75.9162 28.375 77.875 26.4162 77.875 24C77.875 21.5838 75.9162 19.625 73.5 19.625C71.0838 19.625 69.125 21.5838 69.125 24Z" fill="#FEEFE3"/>
<path d="M67.2264 24C67.2264 20.5352 70.3309 17.7264 74.1604 17.7264C77.9899 17.7264 81.0943 20.5352 81.0943 24C81.0943 27.4648 77.9899 30.2736 74.1604 30.2736C70.3309 30.2736 67.2264 27.4648 67.2264 24Z" fill="#FEEFE3"/>
</svg>
