<svg width="96" height="48" viewBox="0 0 96 48" fill="none" xmlns="http://www.w3.org/2000/svg">
<path d="M23.6824 6.09971C24.0524 5.96454 24.4552 5.96686 24.8237 6.1063L36.7187 10.6063C37.0804 10.7431 36.9872 11.3072 36.6027 11.3072H11.4631C11.0765 11.3072 10.9855 10.7384 11.3507 10.605L23.6824 6.09971Z" fill="black"/>
<path d="M9.42857 12.571C9.42857 12.3716 9.58207 12.2099 9.77143 12.2099H38.2286C38.4179 12.2099 38.5714 12.3716 38.5714 12.571V15.4598C38.5714 15.6592 38.4179 15.8208 38.2286 15.8208H9.77143C9.58208 15.8208 9.42857 15.6592 9.42857 15.4598V12.571Z" fill="black"/>
<path d="M7.71429 36.042C7.71429 35.8426 7.86779 35.6809 8.05714 35.6809H39.9429C40.1322 35.6809 40.2857 35.8426 40.2857 36.042V37.1253C40.2857 37.3247 40.1322 37.4864 39.9429 37.4864H8.05714C7.86779 37.4864 7.71429 37.3247 7.71429 37.1253V36.042Z" fill="black"/>
<path d="M6 38.7502C6 38.5507 6.1535 38.3891 6.34286 38.3891H41.6571C41.8465 38.3891 42 38.5507 42 38.7502V41.6389C42 41.8383 41.8465 42 41.6571 42H6.34286C6.1535 42 6 41.8383 6 41.6389V38.7502Z" fill="black"/>
<path d="M10.2857 17.0847C10.2857 16.8852 10.4392 16.7236 10.6286 16.7236H16.8C16.9894 16.7236 17.1429 16.8852 17.1429 17.0847V18.1679C17.1429 18.3674 16.9894 18.529 16.8 18.529H10.6286C10.4392 18.529 10.2857 18.3674 10.2857 18.1679V17.0847Z" fill="black"/>
<path d="M9.42857 33.3338C9.42857 33.1344 9.58207 32.9727 9.77143 32.9727H17.6571C17.8465 32.9727 18 33.1344 18 33.3338V34.4171C18 34.6165 17.8465 34.7782 17.6571 34.7782H9.77143C9.58207 34.7782 9.42857 34.6165 9.42857 34.4171V33.3338Z" fill="black"/>
<path d="M19.7143 33.3338C19.7143 33.1344 19.8678 32.9727 20.0571 32.9727H27.9429C28.1322 32.9727 28.2857 33.1344 28.2857 33.3338V34.4171C28.2857 34.6165 28.1322 34.7782 27.9429 34.7782H20.0571C19.8678 34.7782 19.7143 34.6165 19.7143 34.4171V33.3338Z" fill="black"/>
<path d="M30 33.3338C30 33.1344 30.1535 32.9727 30.3429 32.9727H38.2286C38.4179 32.9727 38.5714 33.1344 38.5714 33.3338V34.4171C38.5714 34.6165 38.4179 34.7782 38.2286 34.7782H30.3429C30.1535 34.7782 30 34.6165 30 34.4171V33.3338Z" fill="black"/>
<path d="M11.1201 19.7671C11.1329 19.5782 11.2822 19.4318 11.4621 19.4318H15.9665C16.1463 19.4318 16.2956 19.5782 16.3085 19.7671L17.1166 31.6832C17.1308 31.8922 16.9736 32.07 16.7746 32.07H10.6539C10.455 32.07 10.2978 31.8922 10.3119 31.6832L11.1201 19.7671Z" fill="black"/>
<path d="M21.4286 19.4318H26.5714L27.4286 32.07H20.5714L21.4286 19.4318Z" fill="black"/>
<path d="M31.6915 19.7671C31.7044 19.5782 31.8537 19.4318 32.0335 19.4318H36.5379C36.7178 19.4318 36.8671 19.5782 36.8799 19.7671L37.6881 31.6832C37.7022 31.8922 37.545 32.07 37.3461 32.07H31.2254C31.0264 32.07 30.8692 31.8922 30.8834 31.6832L31.6915 19.7671Z" fill="black"/>
<path d="M30.8571 17.0847C30.8571 16.8852 31.0106 16.7236 31.2 16.7236H37.3714C37.5608 16.7236 37.7143 16.8852 37.7143 17.0847V18.1679C37.7143 18.3674 37.5608 18.529 37.3714 18.529H31.2C31.0106 18.529 30.8571 18.3674 30.8571 18.1679V17.0847Z" fill="black"/>
<path d="M20.5714 17.0847C20.5714 16.8852 20.7249 16.7236 20.9143 16.7236H27.0857C27.2751 16.7236 27.4286 16.8852 27.4286 17.0847V18.1679C27.4286 18.3674 27.2751 18.529 27.0857 18.529H20.9143C20.7249 18.529 20.5714 18.3674 20.5714 18.1679V17.0847Z" fill="black"/>
<path d="M71.6824 6.09971C72.0524 5.96454 72.4552 5.96686 72.8237 6.1063L84.7187 10.6063C85.0804 10.7431 84.9872 11.3072 84.6027 11.3072H59.4631C59.0765 11.3072 58.9855 10.7384 59.3507 10.605L71.6824 6.09971Z" fill="#FEEFE3"/>
<path d="M57.4286 12.571C57.4286 12.3716 57.5821 12.2099 57.7714 12.2099H86.2286C86.4179 12.2099 86.5714 12.3716 86.5714 12.571V15.4598C86.5714 15.6592 86.4179 15.8208 86.2286 15.8208H57.7714C57.5821 15.8208 57.4286 15.6592 57.4286 15.4598V12.571Z" fill="#FEEFE3"/>
<path d="M55.7143 36.042C55.7143 35.8426 55.8678 35.6809 56.0571 35.6809H87.9429C88.1322 35.6809 88.2857 35.8426 88.2857 36.042V37.1253C88.2857 37.3247 88.1322 37.4864 87.9429 37.4864H56.0571C55.8678 37.4864 55.7143 37.3247 55.7143 37.1253V36.042Z" fill="#FEEFE3"/>
<path d="M54 38.7502C54 38.5507 54.1535 38.3891 54.3429 38.3891H89.6571C89.8465 38.3891 90 38.5507 90 38.7502V41.6389C90 41.8383 89.8465 42 89.6571 42H54.3429C54.1535 42 54 41.8383 54 41.6389V38.7502Z" fill="#FEEFE3"/>
<path d="M58.2857 17.0847C58.2857 16.8852 58.4392 16.7236 58.6286 16.7236H64.8C64.9894 16.7236 65.1429 16.8852 65.1429 17.0847V18.1679C65.1429 18.3674 64.9894 18.529 64.8 18.529H58.6286C58.4392 18.529 58.2857 18.3674 58.2857 18.1679V17.0847Z" fill="#FEEFE3"/>
<path d="M57.4286 33.3338C57.4286 33.1344 57.5821 32.9727 57.7714 32.9727H65.6571C65.8465 32.9727 66 33.1344 66 33.3338V34.4171C66 34.6165 65.8465 34.7782 65.6571 34.7782H57.7714C57.5821 34.7782 57.4286 34.6165 57.4286 34.4171V33.3338Z" fill="#FEEFE3"/>
<path d="M67.7143 33.3338C67.7143 33.1344 67.8678 32.9727 68.0571 32.9727H75.9429C76.1322 32.9727 76.2857 33.1344 76.2857 33.3338V34.4171C76.2857 34.6165 76.1322 34.7782 75.9429 34.7782H68.0571C67.8678 34.7782 67.7143 34.6165 67.7143 34.4171V33.3338Z" fill="#FEEFE3"/>
<path d="M78 33.3338C78 33.1344 78.1535 32.9727 78.3429 32.9727H86.2286C86.4179 32.9727 86.5714 33.1344 86.5714 33.3338V34.4171C86.5714 34.6165 86.4179 34.7782 86.2286 34.7782H78.3429C78.1535 34.7782 78 34.6165 78 34.4171V33.3338Z" fill="#FEEFE3"/>
<path d="M59.1201 19.7671C59.1329 19.5782 59.2822 19.4318 59.4621 19.4318H63.9665C64.1463 19.4318 64.2956 19.5782 64.3085 19.7671L65.1166 31.6832C65.1308 31.8922 64.9736 32.07 64.7746 32.07H58.6539C58.455 32.07 58.2978 31.8922 58.3119 31.6832L59.1201 19.7671Z" fill="#FEEFE3"/>
<path d="M69.4286 19.4318H74.5714L75.4286 32.07H68.5714L69.4286 19.4318Z" fill="#FEEFE3"/>
<path d="M79.6915 19.7671C79.7044 19.5782 79.8537 19.4318 80.0335 19.4318H84.5379C84.7178 19.4318 84.8671 19.5782 84.8799 19.7671L85.6881 31.6832C85.7022 31.8922 85.545 32.07 85.3461 32.07H79.2254C79.0264 32.07 78.8692 31.8922 78.8834 31.6832L79.6915 19.7671Z" fill="#FEEFE3"/>
<path d="M78.8571 17.0847C78.8571 16.8852 79.0106 16.7236 79.2 16.7236H85.3714C85.5608 16.7236 85.7143 16.8852 85.7143 17.0847V18.1679C85.7143 18.3674 85.5608 18.529 85.3714 18.529H79.2C79.0106 18.529 78.8571 18.3674 78.8571 18.1679V17.0847Z" fill="#FEEFE3"/>
<path d="M68.5714 17.0847C68.5714 16.8852 68.7249 16.7236 68.9143 16.7236H75.0857C75.2751 16.7236 75.4286 16.8852 75.4286 17.0847V18.1679C75.4286 18.3674 75.2751 18.529 75.0857 18.529H68.9143C68.7249 18.529 68.5714 18.3674 68.5714 18.1679V17.0847Z" fill="#FEEFE3"/>
</svg>
