<svg width="96" height="48" viewBox="0 0 96 48" fill="none" xmlns="http://www.w3.org/2000/svg">
<path d="M33.2865 14.0244C33.2865 17.3516 31.3037 20.0489 28.8578 20.0489C26.4119 20.0489 24.4291 17.3516 24.4291 14.0244C24.4291 10.6972 26.4119 8 28.8578 8C31.3037 8 33.2865 10.6972 33.2865 14.0244Z" fill="black"/>
<path d="M43 20.6907C43 24.0179 41.0172 26.7151 38.5713 26.7151C36.1254 26.7151 34.1427 24.0179 34.1427 20.6907C34.1427 17.3635 36.1254 14.6662 38.5713 14.6662C41.0172 14.6662 43 17.3635 43 20.6907Z" fill="black"/>
<path d="M22.7134 14.5371C22.7134 17.8643 20.7306 20.5616 18.2847 20.5616C15.8388 20.5616 13.856 17.8643 13.856 14.5371C13.856 11.2099 15.8388 8.5127 18.2847 8.5127C20.7306 8.5127 22.7134 11.2099 22.7134 14.5371Z" fill="black"/>
<path d="M13.8573 21.7141C13.8573 25.0413 11.8746 27.7385 9.42867 27.7385C6.98278 27.7385 5 25.0413 5 21.7141C5 18.3869 6.98278 15.6897 9.42867 15.6897C11.8746 15.6897 13.8573 18.3869 13.8573 21.7141Z" fill="black"/>
<path d="M19.5605 28.8076C21.1953 28.8076 22.7014 29.2405 23.9039 29.9671C25.1064 29.2407 26.612 28.8085 28.2466 28.8084C32.183 28.8084 35.3747 31.3134 35.3748 34.4038C35.3748 37.4944 32.1832 40 28.2466 40C26.6115 40 25.1057 39.5666 23.9031 38.8397C22.7007 39.5662 21.1951 39.9992 19.5605 39.9992C15.6242 39.999 12.4332 37.4942 12.433 34.4038C12.433 31.3134 15.6241 28.8078 19.5605 28.8076Z" fill="black"/>
<path d="M22.3126 23.6061C22.9739 23.0331 23.9656 23.0117 24.6524 23.5557L33.7891 30.7928C35.104 31.8343 34.3461 33.9033 32.6497 33.9033H15.1614C13.5046 33.9033 12.7246 31.9147 13.9611 30.8432L22.3126 23.6061Z" fill="black"/>
<path d="M81.2865 14.0244C81.2865 17.3516 79.3037 20.0489 76.8578 20.0489C74.4119 20.0489 72.4291 17.3516 72.4291 14.0244C72.4291 10.6972 74.4119 8 76.8578 8C79.3037 8 81.2865 10.6972 81.2865 14.0244Z" fill="white"/>
<path d="M91 20.6907C91 24.0179 89.0172 26.7151 86.5713 26.7151C84.1254 26.7151 82.1427 24.0179 82.1427 20.6907C82.1427 17.3635 84.1254 14.6662 86.5713 14.6662C89.0172 14.6662 91 17.3635 91 20.6907Z" fill="white"/>
<path d="M70.7134 14.5371C70.7134 17.8643 68.7306 20.5616 66.2847 20.5616C63.8388 20.5616 61.856 17.8643 61.856 14.5371C61.856 11.2099 63.8388 8.5127 66.2847 8.5127C68.7306 8.5127 70.7134 11.2099 70.7134 14.5371Z" fill="white"/>
<path d="M61.8573 21.7141C61.8573 25.0413 59.8746 27.7385 57.4287 27.7385C54.9828 27.7385 53 25.0413 53 21.7141C53 18.3869 54.9828 15.6897 57.4287 15.6897C59.8746 15.6897 61.8573 18.3869 61.8573 21.7141Z" fill="white"/>
<path d="M67.5605 28.8076C69.1953 28.8076 70.7014 29.2405 71.9039 29.9671C73.1064 29.2407 74.612 28.8085 76.2466 28.8084C80.183 28.8084 83.3747 31.3134 83.3748 34.4038C83.3748 37.4944 80.1832 40 76.2466 40C74.6115 40 73.1057 39.5666 71.9031 38.8397C70.7007 39.5662 69.1951 39.9992 67.5605 39.9992C63.6242 39.999 60.4332 37.4942 60.433 34.4038C60.433 31.3134 63.6241 28.8078 67.5605 28.8076Z" fill="white"/>
<path d="M70.3126 23.6061C70.9739 23.0331 71.9656 23.0117 72.6524 23.5557L81.7891 30.7928C83.104 31.8343 82.3461 33.9033 80.6497 33.9033H63.1614C61.5046 33.9033 60.7246 31.9147 61.9611 30.8432L70.3126 23.6061Z" fill="white"/>
</svg>
