<svg width="90" height="39" viewBox="0 0 90 39" fill="none" xmlns="http://www.w3.org/2000/svg">
<ellipse cx="28.2528" cy="7.34225" rx="5.24449" ry="7.34225" fill="black"/>
<ellipse cx="39.7557" cy="15.4668" rx="5.24449" ry="7.34225" fill="black"/>
<ellipse cx="15.7318" cy="7.967" rx="5.24449" ry="7.34225" fill="black"/>
<ellipse cx="5.24449" cy="16.7141" rx="5.24449" ry="7.34225" fill="black"/>
<path d="M17.2427 25.3594C19.1786 25.3594 20.9622 25.8869 22.3862 26.7725C23.8101 25.8871 25.5932 25.3604 27.5288 25.3604C32.1904 25.3604 35.97 28.4132 35.9702 32.1797C35.9702 35.9463 32.1906 39 27.5288 39C25.5925 39 23.8094 38.4718 22.3853 37.5859C20.9613 38.4713 19.1784 38.999 17.2427 38.999C12.5812 38.9988 8.80244 35.946 8.80225 32.1797C8.80225 28.4132 12.5811 25.3596 17.2427 25.3594Z" fill="black"/>
<path d="M20.5015 19.02C21.2846 18.3217 22.459 18.2956 23.2723 18.9586L34.0921 27.7788C35.6492 29.0481 34.7517 31.5697 32.7427 31.5697H12.0329C10.0709 31.5697 9.14722 29.1461 10.6115 27.8402L20.5015 19.02Z" fill="black"/>
<ellipse cx="73.2528" cy="7.34225" rx="5.24449" ry="7.34225" fill="white"/>
<ellipse cx="84.7557" cy="15.4668" rx="5.24449" ry="7.34225" fill="white"/>
<ellipse cx="60.7318" cy="7.967" rx="5.24449" ry="7.34225" fill="white"/>
<ellipse cx="50.2445" cy="16.7141" rx="5.24449" ry="7.34225" fill="white"/>
<path d="M62.2427 25.3594C64.1786 25.3594 65.9622 25.8869 67.3862 26.7725C68.8101 25.8871 70.5932 25.3604 72.5288 25.3604C77.1904 25.3604 80.97 28.4132 80.9702 32.1797C80.9702 35.9463 77.1906 39 72.5288 39C70.5925 39 68.8094 38.4718 67.3853 37.5859C65.9613 38.4713 64.1784 38.999 62.2427 38.999C57.5812 38.9988 53.8024 35.946 53.8022 32.1797C53.8022 28.4132 57.5811 25.3596 62.2427 25.3594Z" fill="white"/>
<path d="M65.5015 19.02C66.2846 18.3217 67.459 18.2956 68.2723 18.9586L79.0921 27.7788C80.6492 29.0481 79.7517 31.5697 77.7427 31.5697H57.0329C55.0709 31.5697 54.1472 29.1461 55.6115 27.8402L65.5015 19.02Z" fill="white"/>
</svg>
