<svg width="48" height="48" viewBox="0 0 48 48" fill="none" xmlns="http://www.w3.org/2000/svg">
<path d="M0.642645 15.4411C1.48438 14.6508 2.8491 14.6508 3.69084 15.4411L11.237 22.5263C12.0787 23.3166 12.0787 24.5979 11.237 25.3882C10.3952 26.1786 9.03052 26.1786 8.18878 25.3882L0.642645 18.3031C-0.19909 17.5128 -0.199089 16.2314 0.642645 15.4411Z" fill="black"/>
<path d="M0.623308 32.8684C-0.20777 32.0881 -0.207769 30.8229 0.623309 30.0426L8.29345 22.8411C9.05183 22.129 10.2747 22.109 11.059 22.7958C11.8684 23.5047 11.9066 24.6973 11.144 25.4506L3.67052 32.8322C2.84622 33.6463 1.46931 33.6627 0.623308 32.8684Z" fill="black"/>
<path d="M10.8147 4.2343C10.8147 3.20591 11.7027 2.37224 12.798 2.37224C13.8933 2.37224 14.7812 3.20591 14.7812 4.2343V11.6825C14.7812 12.7109 13.8933 13.5446 12.798 13.5446C11.7027 13.5446 10.8147 12.7109 10.8147 11.6825V4.2343Z" fill="black"/>
<path d="M10.8147 43.3376C10.8147 44.366 11.7027 45.1996 12.798 45.1996C13.8933 45.1996 14.7812 44.366 14.7812 43.3376V35.8893C14.7812 34.8609 13.8933 34.0273 12.798 34.0273C11.7027 34.0273 10.8147 34.8609 10.8147 35.8893V43.3376Z" fill="black"/>
<path d="M31.1427 0.931896C31.1427 0.279299 31.8392 -0.170802 32.4884 0.0622645L47.3625 5.402C47.7464 5.53982 48 5.88572 48 6.27163V41.3175C48 41.6948 47.7575 42.0348 47.3859 42.1784L32.5118 47.9289C31.8592 48.1812 31.1427 47.7307 31.1427 47.068V0.931896Z" fill="black"/>
<path d="M27.6721 2.37224C28.7674 2.37224 29.6553 3.20591 29.6553 4.2343C29.6553 5.26269 28.7674 6.09636 27.6721 6.09636L12.798 6.09636C11.7027 6.09636 10.8147 5.26269 10.8147 4.2343C10.8147 3.20591 11.7027 2.37224 12.798 2.37224H27.6721Z" fill="black"/>
<path d="M27.6721 41.4755C28.7674 41.4755 29.6553 42.3092 29.6553 43.3376C29.6553 44.366 28.7674 45.1996 27.6721 45.1996L12.798 45.1996C11.7027 45.1996 10.8147 44.366 10.8147 43.3376C10.8147 42.3092 11.7027 41.4755 12.798 41.4755H27.6721Z" fill="black"/>
</svg>
