<svg width="82" height="35" viewBox="0 0 82 35" fill="none" xmlns="http://www.w3.org/2000/svg">
<path d="M7.99976 6.53137C7.99976 5.86001 8.25249 5.21615 8.70235 4.74142C9.15221 4.2667 9.76236 4 10.3986 4C11.0348 4 11.6449 4.2667 12.0948 4.74142C12.5446 5.21615 12.7974 5.86001 12.7974 6.53137C12.7974 7.20274 12.5446 7.8466 12.0948 8.32132C11.6449 8.79605 11.0348 9.06275 10.3986 9.06275C9.76236 9.06275 9.15221 8.79605 8.70235 8.32132C8.25249 7.8466 7.99976 7.20274 7.99976 6.53137ZM6.32559 14.5105C6.27562 14.5316 6.23064 14.5527 6.18067 14.5738L5.78087 14.7583C4.96127 15.1433 4.33159 15.8764 4.04673 16.7729L3.9168 17.1842C3.63694 18.0702 2.73239 18.5449 1.89281 18.2495C1.05322 17.9542 0.603449 16.9997 0.883309 16.1137L1.01324 15.7023C1.58296 13.904 2.84233 12.4379 4.48151 11.668L4.88131 11.4834C5.9208 10.9982 7.04523 10.7451 8.18467 10.7451C10.4136 10.7451 12.4226 12.1584 13.2771 14.3259L14.0467 16.2719L15.1162 16.8362C15.9058 17.2528 16.2257 18.2653 15.8309 19.0986C15.436 19.9318 14.4765 20.2694 13.6869 19.8527L12.3476 19.1513C11.8328 18.8771 11.428 18.4236 11.2082 17.8593L10.7284 16.6463L9.76388 20.1006L12.2376 22.9484C12.5075 23.2595 12.6974 23.634 12.7974 24.0453L13.9468 28.9024C14.1617 29.8042 13.6419 30.7218 12.7824 30.9486C11.9228 31.1754 11.0582 30.6269 10.8433 29.7198L9.74389 25.0737L6.21065 21.0077C5.47102 20.1586 5.19616 18.972 5.47602 17.8593L6.3206 14.5105H6.32559ZM3.43703 24.9893L4.68641 21.6985C4.79136 21.8567 4.9113 22.0044 5.03624 22.1521L7.07022 24.4936L6.34558 26.4027C6.22564 26.7191 6.04573 27.0091 5.81585 27.2517L2.73239 30.5056C2.1077 31.1648 1.0932 31.1648 0.468516 30.5056C-0.156172 29.8464 -0.156172 28.7758 0.468516 28.1166L3.43703 24.9893Z" fill="black"/>
<mask id="mask0_444_21981" style="mask-type:alpha" maskUnits="userSpaceOnUse" x="8" y="1" width="34" height="34">
<path d="M41.0104 18.4584C41.4957 17.9701 41.4933 17.1808 41.005 16.6955L25.7502 1.53508C25.2619 1.04978 24.4726 1.05223 23.9873 1.54055L8.82691 16.7953C8.34161 17.2836 8.34406 18.0729 8.83238 18.5582L24.0871 33.7186C24.5754 34.2039 25.3647 34.2015 25.85 33.7131L41.0104 18.4584Z" fill="black"/>
</mask>
<g mask="url(#mask0_444_21981)">
<rect width="8.90973" height="8.90973" rx="1.24656" transform="matrix(-0.709296 -0.70491 -0.70491 0.709296 29.604 17.5635)" fill="black"/>
<path d="M39.647 0.184086C40.1412 0.182559 40.5428 0.577017 40.5444 1.06495L40.647 34.2017C40.6483 34.6895 40.2495 35.0858 39.7554 35.0874L24.0933 35.1362C23.5991 35.1377 23.1973 34.7433 23.1958 34.2554L23.1743 27.5298L23.2192 27.5747L32.9448 17.7886L24.0435 8.9419C23.7878 8.68786 23.4495 8.56855 23.1157 8.58155L23.0933 1.11963C23.0918 0.631711 23.4907 0.234599 23.9849 0.232915L39.647 0.184086Z" fill="black"/>
</g>
<path d="M47.9998 6.53113C47.9998 5.85977 48.2525 5.2159 48.7024 4.74118C49.1522 4.26645 49.7624 3.99976 50.3986 3.99976C51.0348 3.99976 51.6449 4.26645 52.0948 4.74118C52.5446 5.2159 52.7974 5.85977 52.7974 6.53113C52.7974 7.20249 52.5446 7.84636 52.0948 8.32108C51.6449 8.79581 51.0348 9.0625 50.3986 9.0625C49.7624 9.0625 49.1522 8.79581 48.7024 8.32108C48.2525 7.84636 47.9998 7.20249 47.9998 6.53113ZM46.3256 14.5102C46.2756 14.5313 46.2306 14.5524 46.1807 14.5735L45.7809 14.7581C44.9613 15.1431 44.3316 15.8761 44.0467 16.7726L43.9168 17.184C43.6369 18.07 42.7324 18.5446 41.8928 18.2493C41.0532 17.954 40.6034 16.9994 40.8833 16.1134L41.0132 15.7021C41.583 13.9038 42.8423 12.4377 44.4815 11.6677L44.8813 11.4831C45.9208 10.9979 47.0452 10.7448 48.1847 10.7448C50.4136 10.7448 52.4226 12.1582 53.2771 14.3257L54.0467 16.2716L55.1162 16.8359C55.9058 17.2526 56.2257 18.2651 55.8309 19.0983C55.436 19.9316 54.4765 20.2691 53.6869 19.8525L52.3476 19.1511C51.8328 18.8768 51.428 18.4233 51.2082 17.859L50.7284 16.6461L49.7639 20.1003L52.2376 22.9481C52.5075 23.2593 52.6974 23.6337 52.7974 24.0451L53.9468 28.9021C54.1617 29.8039 53.6419 30.7216 52.7824 30.9483C51.9228 31.1751 51.0582 30.6266 50.8433 29.7196L49.7439 25.0734L46.2107 21.0074C45.471 20.1584 45.1962 18.9718 45.476 17.859L46.3206 14.5102H46.3256ZM43.437 24.9891L44.6864 21.6983C44.7914 21.8565 44.9113 22.0042 45.0362 22.1518L47.0702 24.4933L46.3456 26.4024C46.2256 26.7188 46.0457 27.0089 45.8158 27.2515L42.7324 30.5053C42.1077 31.1646 41.0932 31.1646 40.4685 30.5053C39.8438 29.8461 39.8438 28.7756 40.4685 28.1164L43.437 24.9891Z" fill="white"/>
<mask id="mask1_444_21981" style="mask-type:alpha" maskUnits="userSpaceOnUse" x="48" y="1" width="34" height="34">
<path d="M81.0104 18.4582C81.4957 17.9698 81.4933 17.1806 81.005 16.6953L65.7502 1.53483C65.2619 1.04953 64.4726 1.05198 63.9873 1.5403L48.8269 16.7951C48.3416 17.2834 48.3441 18.0726 48.8324 18.5579L64.0871 33.7184C64.5754 34.2037 65.3647 34.2012 65.85 33.7129L81.0104 18.4582Z" fill="white"/>
</mask>
<g mask="url(#mask1_444_21981)">
<rect width="8.90973" height="8.90973" rx="1.24656" transform="matrix(-0.709296 -0.70491 -0.70491 0.709296 69.604 17.5632)" fill="white"/>
<path d="M79.647 0.183842C80.1412 0.182315 80.5428 0.576773 80.5444 1.0647L80.647 34.2014C80.6483 34.6892 80.2495 35.0855 79.7554 35.0872L64.0933 35.136C63.5991 35.1375 63.1973 34.7431 63.1958 34.2551L63.1743 27.5295L63.2192 27.5745L72.9448 17.7883L64.0435 8.94165C63.7878 8.68762 63.4495 8.56831 63.1157 8.5813L63.0933 1.11939C63.0918 0.631466 63.4907 0.234355 63.9849 0.23267L79.647 0.183842Z" fill="white"/>
</g>
</svg>
