<svg width="96" height="48" viewBox="0 0 96 48" fill="none" xmlns="http://www.w3.org/2000/svg">
<path d="M33.5 10H12.5C10.379 10 9.3185 10 8.66 10.6409C8.0015 11.2818 8 12.3147 8 14.3789V15.4523C8 17.0654 8 17.8728 8.39 18.5416C8.78 19.2105 9.4895 19.6274 10.913 20.4581L15.2825 23.0093C16.2365 23.5661 16.715 23.8446 17.057 24.1526C17.768 24.7919 18.206 25.5448 18.404 26.4704C18.5 26.9122 18.5 27.4317 18.5 28.4693V32.6227C18.5 34.0367 18.5 34.7445 18.878 35.2952C19.256 35.8474 19.928 36.1196 21.269 36.6641C24.0875 37.8059 25.496 38.3768 26.498 37.7265C27.5 37.0763 27.5 35.5923 27.5 32.6211V28.4678C27.5 27.4317 27.5 26.9122 27.596 26.4688C27.7844 25.5622 28.2589 24.7466 28.9445 24.151C29.285 23.8446 29.7635 23.5661 30.7175 23.0077L35.087 20.4566C36.509 19.6274 37.2215 19.2121 37.61 18.5432C38 17.8743 38 17.0654 38 15.4507V14.3774C38 12.3147 38 11.2818 37.34 10.6409C36.683 10 35.6225 10 33.5 10Z" fill="#303130"/>
<path d="M81.5 10H60.5C58.379 10 57.3185 10 56.66 10.6409C56.0015 11.2818 56 12.3147 56 14.3789V15.4523C56 17.0654 56 17.8728 56.39 18.5416C56.78 19.2105 57.4895 19.6274 58.913 20.4581L63.2825 23.0093C64.2365 23.5661 64.715 23.8446 65.057 24.1526C65.768 24.7919 66.206 25.5448 66.404 26.4704C66.5 26.9122 66.5 27.4317 66.5 28.4693V32.6227C66.5 34.0367 66.5 34.7445 66.878 35.2952C67.256 35.8474 67.928 36.1196 69.269 36.6641C72.0875 37.8059 73.496 38.3768 74.498 37.7265C75.5 37.0763 75.5 35.5923 75.5 32.6211V28.4678C75.5 27.4317 75.5 26.9122 75.596 26.4688C75.7844 25.5622 76.2589 24.7466 76.9445 24.151C77.285 23.8446 77.7635 23.5661 78.7175 23.0077L83.087 20.4566C84.509 19.6274 85.2215 19.2121 85.61 18.5432C86 17.8743 86 17.0654 86 15.4507V14.3774C86 12.3147 86 11.2818 85.34 10.6409C84.683 10 83.6225 10 81.5 10Z" fill="#FEEFE3"/>
</svg>
