<svg width="90" height="45" viewBox="0 0 90 45" fill="none" xmlns="http://www.w3.org/2000/svg">
<path d="M42.4883 44.9993H26.583L23.2344 9.64282H45L42.4883 44.9993ZM26.583 17.679L28.9004 41.7864H39.9121L41.6504 17.679H26.583Z" fill="black"/>
<path d="M1.46896 28.928H21.56L22.3971 32.9458H0.631836L1.46896 28.928Z" fill="black"/>
<path d="M1.46896 44.1963H21.56L22.3971 40.1784H0.631836L1.46896 44.1963Z" fill="black"/>
<rect y="34.4773" width="23.0288" height="4.09367" fill="black"/>
<path d="M42.4878 0H44.9992L39.1393 14.4643H36.6279L42.4878 0Z" fill="black"/>
<path d="M87.4883 44.9993H71.583L68.2344 9.64282H90L87.4883 44.9993ZM71.583 17.679L73.9004 41.7864H84.9121L86.6504 17.679H71.583Z" fill="white"/>
<path d="M46.469 28.928H66.56L67.3971 32.9458H45.6318L46.469 28.928Z" fill="white"/>
<path d="M46.469 44.1963H66.56L67.3971 40.1784H45.6318L46.469 44.1963Z" fill="white"/>
<rect x="45" y="34.4773" width="23.0288" height="4.09367" fill="white"/>
<path d="M87.4878 0H89.9992L84.1393 14.4643H81.6279L87.4878 0Z" fill="white"/>
</svg>
