<svg width="96" height="48" viewBox="0 0 96 48" fill="none" xmlns="http://www.w3.org/2000/svg">
<path fill-rule="evenodd" clip-rule="evenodd" d="M39.9902 42H27.2661L24.5876 13.7134H42L39.9902 42ZM27.2661 20.1428L29.1202 39.4286H37.9294L39.3206 20.1428H27.2661Z" fill="black"/>
<path d="M7.17517 29.1424H23.248L23.9177 32.3567H6.50547L7.17517 29.1424Z" fill="black"/>
<path d="M7.17517 41.3571H23.248L23.9177 38.1428H6.50547L7.17517 41.3571Z" fill="black"/>
<path d="M6 33.5819H24.4231V36.8568H6V33.5819Z" fill="black"/>
<path d="M39.9903 6H41.9995L37.3115 17.5715H35.3024L39.9903 6Z" fill="black"/>
<path fill-rule="evenodd" clip-rule="evenodd" d="M87.9902 42H75.2661L72.5876 13.7134H90L87.9902 42ZM75.2661 20.1428L77.1202 39.4286H85.9294L87.3206 20.1428H75.2661Z" fill="#FEEFE3"/>
<path d="M55.1752 29.1424H71.248L71.9177 32.3567H54.5055L55.1752 29.1424Z" fill="#FEEFE3"/>
<path d="M55.1752 41.3571H71.248L71.9177 38.1428H54.5055L55.1752 41.3571Z" fill="#FEEFE3"/>
<path d="M54 33.5819H72.4231V36.8568H54V33.5819Z" fill="#FEEFE3"/>
<path d="M87.9903 6H89.9995L85.3115 17.5715H83.3024L87.9903 6Z" fill="#FEEFE3"/>
</svg>
