<svg width="96" height="48" viewBox="0 0 96 48" fill="none" xmlns="http://www.w3.org/2000/svg">
<path d="M8 20C6.93913 20 5.92172 20.4214 5.17157 21.1716C4.42143 21.9217 4 22.9391 4 24C4 25.0609 4.42143 26.0783 5.17157 26.8284C5.92172 27.5786 6.93913 28 8 28C9.06087 28 10.0783 27.5786 10.8284 26.8284C11.5786 26.0783 12 25.0609 12 24C12 22.9391 11.5786 21.9217 10.8284 21.1716C10.0783 20.4214 9.06087 20 8 20ZM20 24C20 22.9391 20.4214 21.9217 21.1716 21.1716C21.9217 20.4214 22.9391 20 24 20C25.0609 20 26.0783 20.4214 26.8284 21.1716C27.5786 21.9217 28 22.9391 28 24C28 25.0609 27.5786 26.0783 26.8284 26.8284C26.0783 27.5786 25.0609 28 24 28C22.9391 28 21.9217 27.5786 21.1716 26.8284C20.4214 26.0783 20 25.0609 20 24ZM36 24C36 22.9391 36.4214 21.9217 37.1716 21.1716C37.9217 20.4214 38.9391 20 40 20C41.0609 20 42.0783 20.4214 42.8284 21.1716C43.5786 21.9217 44 22.9391 44 24C44 25.0609 43.5786 26.0783 42.8284 26.8284C42.0783 27.5786 41.0609 28 40 28C38.9391 28 37.9217 27.5786 37.1716 26.8284C36.4214 26.0783 36 25.0609 36 24Z" fill="black"/>
<path d="M56 20C54.9391 20 53.9217 20.4214 53.1716 21.1716C52.4214 21.9217 52 22.9391 52 24C52 25.0609 52.4214 26.0783 53.1716 26.8284C53.9217 27.5786 54.9391 28 56 28C57.0609 28 58.0783 27.5786 58.8284 26.8284C59.5786 26.0783 60 25.0609 60 24C60 22.9391 59.5786 21.9217 58.8284 21.1716C58.0783 20.4214 57.0609 20 56 20ZM68 24C68 22.9391 68.4214 21.9217 69.1716 21.1716C69.9217 20.4214 70.9391 20 72 20C73.0609 20 74.0783 20.4214 74.8284 21.1716C75.5786 21.9217 76 22.9391 76 24C76 25.0609 75.5786 26.0783 74.8284 26.8284C74.0783 27.5786 73.0609 28 72 28C70.9391 28 69.9217 27.5786 69.1716 26.8284C68.4214 26.0783 68 25.0609 68 24ZM84 24C84 22.9391 84.4214 21.9217 85.1716 21.1716C85.9217 20.4214 86.9391 20 88 20C89.0609 20 90.0783 20.4214 90.8284 21.1716C91.5786 21.9217 92 22.9391 92 24C92 25.0609 91.5786 26.0783 90.8284 26.8284C90.0783 27.5786 89.0609 28 88 28C86.9391 28 85.9217 27.5786 85.1716 26.8284C84.4214 26.0783 84 25.0609 84 24Z" fill="#FEEFE3"/>
</svg>
