<svg width="96" height="48" viewBox="0 0 96 48" fill="none" xmlns="http://www.w3.org/2000/svg">
<path d="M24.0153 5C24.7234 5 25.4024 5.28176 25.9031 5.78328C26.4037 6.28481 26.685 6.96503 26.685 7.6743V17.3053L35.0108 12.488C35.6237 12.139 36.3495 12.0469 37.0298 12.232C37.7101 12.417 38.2898 12.8641 38.6423 13.4757C38.9948 14.0872 39.0915 14.8137 38.9113 15.4964C38.7311 16.1791 38.2887 16.7628 37.6805 17.1199L29.3547 21.9372L37.6805 26.7527C38.2887 27.1099 38.7311 27.6935 38.9113 28.3763C39.0915 29.059 38.9948 29.7854 38.6423 30.397C38.2898 31.0086 37.7101 31.4557 37.0298 31.6407C36.3495 31.8257 35.6237 31.7337 35.0108 31.3846L26.685 26.5709V36.2002C26.685 36.9094 26.4037 37.5896 25.9031 38.0912C25.4024 38.5927 24.7234 38.8744 24.0153 38.8744C23.3073 38.8744 22.6282 38.5927 22.1276 38.0912C21.6269 37.5896 21.3457 36.9094 21.3457 36.2002V26.5691L13.0198 31.3864C12.7161 31.5648 12.3802 31.6812 12.0313 31.729C11.6825 31.7768 11.3277 31.755 10.9873 31.6648C10.6469 31.5747 10.3277 31.418 10.048 31.2037C9.76834 30.9895 9.53373 30.722 9.35769 30.4165C9.18164 30.1111 9.06765 29.7738 9.02227 29.424C8.97689 29.0743 9.00102 28.719 9.09326 28.3787C9.18551 28.0383 9.34406 27.7196 9.55977 27.4408C9.77548 27.1621 10.0441 26.9288 10.3502 26.7545L18.676 21.9372L10.3502 17.1217C9.742 16.7645 9.29955 16.1809 9.11935 15.4982C8.93916 14.8154 9.03586 14.089 9.38836 13.4775C9.74085 12.8659 10.3205 12.4188 11.0009 12.2338C11.6812 12.0487 12.407 12.1408 13.0198 12.4898L21.3457 17.3036V7.6743C21.3457 6.96503 21.6269 6.28481 22.1276 5.78328C22.6282 5.28176 23.3073 5 24.0153 5Z" fill="black"/>
<path d="M72.0153 5C72.7234 5 73.4024 5.28176 73.9031 5.78328C74.4037 6.28481 74.685 6.96503 74.685 7.6743V17.3053L83.0108 12.488C83.6237 12.139 84.3495 12.0469 85.0298 12.232C85.7101 12.417 86.2898 12.8641 86.6423 13.4757C86.9948 14.0872 87.0915 14.8137 86.9113 15.4964C86.7311 16.1791 86.2887 16.7628 85.6805 17.1199L77.3547 21.9372L85.6805 26.7527C86.2887 27.1099 86.7311 27.6935 86.9113 28.3763C87.0915 29.059 86.9948 29.7854 86.6423 30.397C86.2898 31.0086 85.7101 31.4557 85.0298 31.6407C84.3495 31.8257 83.6237 31.7337 83.0108 31.3846L74.685 26.5709V36.2002C74.685 36.9094 74.4037 37.5896 73.9031 38.0912C73.4024 38.5927 72.7234 38.8744 72.0153 38.8744C71.3073 38.8744 70.6282 38.5927 70.1276 38.0912C69.6269 37.5896 69.3457 36.9094 69.3457 36.2002V26.5691L61.0198 31.3864C60.7161 31.5648 60.3802 31.6812 60.0313 31.729C59.6825 31.7768 59.3277 31.755 58.9873 31.6648C58.6469 31.5747 58.3277 31.418 58.048 31.2037C57.7683 30.9895 57.5337 30.722 57.3577 30.4165C57.1816 30.1111 57.0677 29.7738 57.0223 29.424C56.9769 29.0743 57.001 28.719 57.0933 28.3787C57.1855 28.0383 57.3441 27.7196 57.5598 27.4408C57.7755 27.1621 58.0441 26.9288 58.3502 26.7545L66.676 21.9372L58.3502 17.1217C57.742 16.7645 57.2995 16.1809 57.1194 15.4982C56.9392 14.8154 57.0359 14.089 57.3884 13.4775C57.7409 12.8659 58.3205 12.4188 59.0009 12.2338C59.6812 12.0487 60.407 12.1408 61.0198 12.4898L69.3457 17.3036V7.6743C69.3457 6.96503 69.6269 6.28481 70.1276 5.78328C70.6282 5.28176 71.3073 5 72.0153 5Z" fill="#FEEFE3"/>
</svg>
