<svg width="96" height="48" viewBox="0 0 96 48" fill="none" xmlns="http://www.w3.org/2000/svg">
<path d="M39.2453 24C39.2453 15.5803 32.4197 8.75474 24 8.75474C15.5803 8.75474 8.75474 15.5803 8.75474 24C8.75474 32.4197 15.5803 39.2453 24 39.2453V42C14.0589 42 6 33.9411 6 24C6 14.0589 14.0589 6 24 6C33.9411 6 42 14.0589 42 24C42 33.9411 33.9411 42 24 42V39.2453C32.4197 39.2453 39.2453 32.4197 39.2453 24Z" fill="black"/>
<path d="M15.8571 22.2857C15.2888 22.2857 14.7438 22.5115 14.3419 22.9133C13.9401 23.3152 13.7143 23.8603 13.7143 24.4286C13.7143 24.9969 13.9401 25.5419 14.3419 25.9438C14.7438 26.3457 15.2888 26.5714 15.8571 26.5714C16.4255 26.5714 16.9705 26.3457 17.3724 25.9438C17.7742 25.5419 18 24.9969 18 24.4286C18 23.8603 17.7742 23.3152 17.3724 22.9133C16.9705 22.5115 16.4255 22.2857 15.8571 22.2857ZM22.2857 24.4286C22.2857 23.8603 22.5115 23.3152 22.9133 22.9133C23.3152 22.5115 23.8603 22.2857 24.4286 22.2857C24.9969 22.2857 25.5419 22.5115 25.9438 22.9133C26.3457 23.3152 26.5714 23.8603 26.5714 24.4286C26.5714 24.9969 26.3457 25.5419 25.9438 25.9438C25.5419 26.3457 24.9969 26.5714 24.4286 26.5714C23.8603 26.5714 23.3152 26.3457 22.9133 25.9438C22.5115 25.5419 22.2857 24.9969 22.2857 24.4286ZM30.8571 24.4286C30.8571 23.8603 31.0829 23.3152 31.4848 22.9133C31.8866 22.5115 32.4317 22.2857 33 22.2857C33.5683 22.2857 34.1134 22.5115 34.5152 22.9133C34.9171 23.3152 35.1429 23.8603 35.1429 24.4286C35.1429 24.9969 34.9171 25.5419 34.5152 25.9438C34.1134 26.3457 33.5683 26.5714 33 26.5714C32.4317 26.5714 31.8866 26.3457 31.4848 25.9438C31.0829 25.5419 30.8571 24.9969 30.8571 24.4286Z" fill="black"/>
<path d="M87.2453 24C87.2453 15.5803 80.4197 8.75474 72 8.75474C63.5803 8.75474 56.7547 15.5803 56.7547 24C56.7547 32.4197 63.5803 39.2453 72 39.2453V42C62.0589 42 54 33.9411 54 24C54 14.0589 62.0589 6 72 6C81.9411 6 90 14.0589 90 24C90 33.9411 81.9411 42 72 42V39.2453C80.4197 39.2453 87.2453 32.4197 87.2453 24Z" fill="#FEEFE3"/>
<path d="M63.8571 22.2857C63.2888 22.2857 62.7438 22.5115 62.3419 22.9133C61.9401 23.3152 61.7143 23.8603 61.7143 24.4286C61.7143 24.9969 61.9401 25.5419 62.3419 25.9438C62.7438 26.3457 63.2888 26.5714 63.8571 26.5714C64.4255 26.5714 64.9705 26.3457 65.3724 25.9438C65.7742 25.5419 66 24.9969 66 24.4286C66 23.8603 65.7742 23.3152 65.3724 22.9133C64.9705 22.5115 64.4255 22.2857 63.8571 22.2857ZM70.2857 24.4286C70.2857 23.8603 70.5115 23.3152 70.9133 22.9133C71.3152 22.5115 71.8603 22.2857 72.4286 22.2857C72.9969 22.2857 73.5419 22.5115 73.9438 22.9133C74.3457 23.3152 74.5714 23.8603 74.5714 24.4286C74.5714 24.9969 74.3457 25.5419 73.9438 25.9438C73.5419 26.3457 72.9969 26.5714 72.4286 26.5714C71.8603 26.5714 71.3152 26.3457 70.9133 25.9438C70.5115 25.5419 70.2857 24.9969 70.2857 24.4286ZM78.8571 24.4286C78.8571 23.8603 79.0829 23.3152 79.4848 22.9133C79.8866 22.5115 80.4317 22.2857 81 22.2857C81.5683 22.2857 82.1134 22.5115 82.5152 22.9133C82.9171 23.3152 83.1429 23.8603 83.1429 24.4286C83.1429 24.9969 82.9171 25.5419 82.5152 25.9438C82.1134 26.3457 81.5683 26.5714 81 26.5714C80.4317 26.5714 79.8866 26.3457 79.4848 25.9438C79.0829 25.5419 78.8571 24.9969 78.8571 24.4286Z" fill="#FEEFE3"/>
</svg>
