<svg width="96" height="48" viewBox="0 0 96 48" fill="none" xmlns="http://www.w3.org/2000/svg">
<path d="M12 21C11.2044 21 10.4413 21.3161 9.87868 21.8787C9.31607 22.4413 9 23.2044 9 24C9 24.7956 9.31607 25.5587 9.87868 26.1213C10.4413 26.6839 11.2044 27 12 27C12.7956 27 13.5587 26.6839 14.1213 26.1213C14.6839 25.5587 15 24.7956 15 24C15 23.2044 14.6839 22.4413 14.1213 21.8787C13.5587 21.3161 12.7956 21 12 21ZM21 24C21 23.2044 21.3161 22.4413 21.8787 21.8787C22.4413 21.3161 23.2044 21 24 21C24.7956 21 25.5587 21.3161 26.1213 21.8787C26.6839 22.4413 27 23.2044 27 24C27 24.7956 26.6839 25.5587 26.1213 26.1213C25.5587 26.6839 24.7956 27 24 27C23.2044 27 22.4413 26.6839 21.8787 26.1213C21.3161 25.5587 21 24.7956 21 24ZM33 24C33 23.2044 33.3161 22.4413 33.8787 21.8787C34.4413 21.3161 35.2044 21 36 21C36.7956 21 37.5587 21.3161 38.1213 21.8787C38.6839 22.4413 39 23.2044 39 24C39 24.7956 38.6839 25.5587 38.1213 26.1213C37.5587 26.6839 36.7956 27 36 27C35.2044 27 34.4413 26.6839 33.8787 26.1213C33.3161 25.5587 33 24.7956 33 24Z" fill="black"/>
<path d="M60 21C59.2044 21 58.4413 21.3161 57.8787 21.8787C57.3161 22.4413 57 23.2044 57 24C57 24.7956 57.3161 25.5587 57.8787 26.1213C58.4413 26.6839 59.2044 27 60 27C60.7956 27 61.5587 26.6839 62.1213 26.1213C62.6839 25.5587 63 24.7956 63 24C63 23.2044 62.6839 22.4413 62.1213 21.8787C61.5587 21.3161 60.7956 21 60 21ZM69 24C69 23.2044 69.3161 22.4413 69.8787 21.8787C70.4413 21.3161 71.2044 21 72 21C72.7956 21 73.5587 21.3161 74.1213 21.8787C74.6839 22.4413 75 23.2044 75 24C75 24.7956 74.6839 25.5587 74.1213 26.1213C73.5587 26.6839 72.7956 27 72 27C71.2044 27 70.4413 26.6839 69.8787 26.1213C69.3161 25.5587 69 24.7956 69 24ZM81 24C81 23.2044 81.3161 22.4413 81.8787 21.8787C82.4413 21.3161 83.2044 21 84 21C84.7956 21 85.5587 21.3161 86.1213 21.8787C86.6839 22.4413 87 23.2044 87 24C87 24.7956 86.6839 25.5587 86.1213 26.1213C85.5587 26.6839 84.7956 27 84 27C83.2044 27 82.4413 26.6839 81.8787 26.1213C81.3161 25.5587 81 24.7956 81 24Z" fill="#FEEFE3"/>
</svg>
