<svg width="84" height="42" viewBox="0 0 84 42" fill="none" xmlns="http://www.w3.org/2000/svg">
<path d="M22.2129 10.5039C26.3674 10.504 28.8749 13.3959 28.875 17.2871C28.875 21.2092 26.3373 24.0547 22.1826 24.0547H17.8057V31.499H14.4375V10.5039H22.2129ZM17.791 21.1943H21.708C24.0524 21.1943 25.4326 19.7634 25.4326 17.2871C25.4326 14.8108 24.0524 13.3955 21.708 13.3955H17.791V21.1943Z" fill="black"/>
<circle cx="21" cy="21" r="19.3931" stroke="black" stroke-width="3.21384"/>
<path d="M64.2129 10.5039C68.3674 10.504 70.8749 13.3959 70.875 17.2871C70.875 21.2092 68.3373 24.0547 64.1826 24.0547H59.8057V31.499H56.4375V10.5039H64.2129ZM59.791 21.1943H63.708C66.0524 21.1943 67.4326 19.7634 67.4326 17.2871C67.4326 14.8108 66.0524 13.3955 63.708 13.3955H59.791V21.1943Z" fill="white"/>
<circle cx="63" cy="21" r="19.3931" stroke="white" stroke-width="3.21384"/>
</svg>
