<svg width="96" height="48" viewBox="0 0 96 48" fill="none" xmlns="http://www.w3.org/2000/svg">
<path fill-rule="evenodd" clip-rule="evenodd" d="M25.0974 14.5044C28.8562 14.5045 31.1249 17.1201 31.125 20.6407C31.125 24.1893 28.829 26.7638 25.07 26.7638H21.1099V33.4991H18.0625V14.5044H25.0974ZM21.0966 24.1758H24.6406C26.7617 24.1758 28.0105 22.8812 28.0105 20.6407C28.0105 18.4002 26.7617 17.1197 24.6406 17.1197H21.0966V24.1758Z" fill="black"/>
<path d="M40.0922 24C40.0922 15.1125 32.8875 7.90778 24 7.90778C15.1125 7.90778 7.90778 15.1125 7.90778 24C7.90778 32.8875 15.1125 40.0922 24 40.0922V43C13.5066 43 5 34.4934 5 24C5 13.5066 13.5066 5 24 5C34.4934 5 43 13.5066 43 24C43 34.4934 34.4934 43 24 43V40.0922C32.8875 40.0922 40.0922 32.8875 40.0922 24Z" fill="black"/>
<path fill-rule="evenodd" clip-rule="evenodd" d="M73.0974 14.5044C76.8562 14.5045 79.1249 17.1201 79.125 20.6407C79.125 24.1893 76.829 26.7638 73.07 26.7638H69.1099V33.4991H66.0625V14.5044H73.0974ZM69.0966 24.1758H72.6406C74.7617 24.1758 76.0105 22.8812 76.0105 20.6407C76.0105 18.4002 74.7617 17.1197 72.6406 17.1197H69.0966V24.1758Z" fill="#FEEFE3"/>
<path d="M88.0922 24C88.0922 15.1125 80.8875 7.90778 72 7.90778C63.1125 7.90778 55.9078 15.1125 55.9078 24C55.9078 32.8875 63.1125 40.0922 72 40.0922V43C61.5066 43 53 34.4934 53 24C53 13.5066 61.5066 5 72 5C82.4934 5 91 13.5066 91 24C91 34.4934 82.4934 43 72 43V40.0922C80.8875 40.0922 88.0922 32.8875 88.0922 24Z" fill="#FEEFE3"/>
</svg>
