<svg width="96" height="48" viewBox="0 0 96 48" fill="none" xmlns="http://www.w3.org/2000/svg">
<path d="M40.8025 15.7418H45V40.8278H40.8025V15.7418Z" fill="black"/>
<path d="M13.4569 20.6761H17.0162V41.5H13.4569V20.6761Z" fill="black"/>
<path d="M3 20.6761H6.55932V41.5H3V20.6761Z" fill="black"/>
<path d="M32.407 15.7418H36.6045V40.8278H32.407V15.7418Z" fill="black"/>
<path d="M32.407 27.6252V23.6643L44.9996 23.6643V27.6252H32.407Z" fill="black"/>
<path d="M17.0165 24.9845V22.3439L32.4075 22.3439V24.9845H17.0165Z" fill="black"/>
<path d="M17.0165 31.5865V28.9458L32.4075 28.9458V31.5865H17.0165Z" fill="black"/>
<path d="M25.4111 31.5865H24.012V22.3442H25.4111L25.4111 31.5865Z" fill="black"/>
<path d="M22.6131 31.5865H21.2139V22.3442H22.6131L22.6131 31.5865Z" fill="black"/>
<path d="M19.8146 31.5865H18.4154V22.3442H19.8146L19.8146 31.5865Z" fill="black"/>
<path d="M28.21 31.5865H26.8109L26.8109 22.3442H28.2101L28.21 31.5865Z" fill="black"/>
<path d="M31.0077 31.5865H29.6085L29.6085 22.3442H31.0077L31.0077 31.5865Z" fill="black"/>
<path d="M4.42345 27.6252L4.42345 24.9846L17.0165 24.9845L17.0161 27.6252H4.42345Z" fill="black"/>
<path d="M4.42345 31.5865L4.42345 28.9458H17.0165V31.5865H4.42345Z" fill="black"/>
<path d="M4.42345 35.5465L4.42345 32.9059H17.0161V35.5465H4.42345Z" fill="black"/>
<path d="M4.42345 39.5077L4.42345 36.8671H17.0161V39.5077H4.42345Z" fill="black"/>
<path d="M32.407 19.7031V15.7418H45L44.9996 19.7031H32.407Z" fill="black"/>
<path d="M38.7033 6.5L45 15.7418H32.407L38.7033 6.5Z" fill="black"/>
<path d="M88.8025 15.7418H93V40.8278H88.8025V15.7418Z" fill="#FEEFE3"/>
<path d="M61.4569 20.6761H65.0162V41.5H61.4569V20.6761Z" fill="#FEEFE3"/>
<path d="M51 20.6761H54.5593V41.5H51V20.6761Z" fill="#FEEFE3"/>
<path d="M80.407 15.7418H84.6045V40.8278H80.407V15.7418Z" fill="#FEEFE3"/>
<path d="M80.407 27.6252V23.6643L92.9996 23.6643V27.6252H80.407Z" fill="#FEEFE3"/>
<path d="M65.0165 24.9845V22.3439L80.4075 22.3439V24.9845H65.0165Z" fill="#FEEFE3"/>
<path d="M65.0165 31.5865V28.9458L80.4075 28.9458V31.5865H65.0165Z" fill="#FEEFE3"/>
<path d="M73.4111 31.5865H72.012V22.3442H73.4111L73.4111 31.5865Z" fill="#FEEFE3"/>
<path d="M70.6131 31.5865H69.2139V22.3442H70.6131L70.6131 31.5865Z" fill="#FEEFE3"/>
<path d="M67.8146 31.5865H66.4154V22.3442H67.8146L67.8146 31.5865Z" fill="#FEEFE3"/>
<path d="M76.21 31.5865H74.8109L74.8109 22.3442H76.2101L76.21 31.5865Z" fill="#FEEFE3"/>
<path d="M79.0077 31.5865H77.6085L77.6085 22.3442H79.0077L79.0077 31.5865Z" fill="#FEEFE3"/>
<path d="M52.4234 27.6252L52.4234 24.9846L65.0165 24.9845L65.0161 27.6252H52.4234Z" fill="#FEEFE3"/>
<path d="M52.4234 31.5865L52.4234 28.9458H65.0165V31.5865H52.4234Z" fill="#FEEFE3"/>
<path d="M52.4234 35.5465L52.4234 32.9059H65.0161V35.5465H52.4234Z" fill="#FEEFE3"/>
<path d="M52.4234 39.5077L52.4234 36.8671H65.0161V39.5077H52.4234Z" fill="#FEEFE3"/>
<path d="M80.407 19.7031V15.7418H93L92.9996 19.7031H80.407Z" fill="#FEEFE3"/>
<path d="M86.7033 6.5L93 15.7418H80.407L86.7033 6.5Z" fill="#FEEFE3"/>
</svg>
