<svg width="72" height="36" viewBox="0 0 72 36" fill="none" xmlns="http://www.w3.org/2000/svg">
<path d="M21.75 11.125C21.75 9.39911 23.1491 8 24.875 8C26.6009 8 28 9.39911 28 11.125C28 12.8509 26.6009 14.25 24.875 14.25C23.9263 14.25 23.0764 13.8273 22.5033 13.1599L14.1062 17.0603C14.1996 17.3569 14.25 17.6725 14.25 18C14.25 18.3275 14.1996 18.6431 14.1062 18.9397L22.5033 22.8401C23.0764 22.1727 23.9263 21.75 24.875 21.75C26.6009 21.75 28 23.1491 28 24.875C28 26.6009 26.6009 28 24.875 28C23.1491 28 21.75 26.6009 21.75 24.875C21.75 24.5475 21.8004 24.2319 21.8938 23.9353L13.4967 20.0349C12.9236 20.7023 12.0737 21.125 11.125 21.125C9.39911 21.125 8 19.7259 8 18C8 16.2741 9.39911 14.875 11.125 14.875C12.0737 14.875 12.9236 15.2977 13.4967 15.9651L21.8938 12.0647C21.8004 11.7681 21.75 11.4525 21.75 11.125Z" fill="black"/>
<path d="M57.75 11.125C57.75 9.39911 59.1491 8 60.875 8C62.6009 8 64 9.39911 64 11.125C64 12.8509 62.6009 14.25 60.875 14.25C59.9263 14.25 59.0764 13.8273 58.5033 13.1599L50.1062 17.0603C50.1996 17.3569 50.25 17.6725 50.25 18C50.25 18.3275 50.1996 18.6431 50.1062 18.9397L58.5033 22.8401C59.0764 22.1727 59.9263 21.75 60.875 21.75C62.6009 21.75 64 23.1491 64 24.875C64 26.6009 62.6009 28 60.875 28C59.1491 28 57.75 26.6009 57.75 24.875C57.75 24.5475 57.8004 24.2319 57.8938 23.9353L49.4967 20.0349C48.9236 20.7023 48.0737 21.125 47.125 21.125C45.3991 21.125 44 19.7259 44 18C44 16.2741 45.3991 14.875 47.125 14.875C48.0737 14.875 48.9236 15.2977 49.4967 15.9651L57.8938 12.0647C57.8004 11.7681 57.75 11.4525 57.75 11.125Z" fill="#FEEFE3"/>
</svg>
