<svg width="84" height="42" viewBox="0 0 84 42" fill="none" xmlns="http://www.w3.org/2000/svg">
<circle cx="21" cy="21" r="19.4726" stroke="black" stroke-width="3.0547"/>
<path d="M29.9847 15.7968C29.6947 15.1389 29.3139 14.5249 28.8535 13.9726L26.4133 16.4128C26.9846 16.7509 27.6575 16.8745 28.3117 16.7617C28.9658 16.6488 29.5584 16.3067 29.9833 15.7968M25.4221 15.423L27.8623 12.9828C27.3105 12.5225 26.6969 12.1417 26.0395 11.8516C25.5292 12.2766 25.1869 12.8694 25.074 13.5239C24.9612 14.1783 25.0851 14.8516 25.4235 15.423M23.6371 14.0006C23.6371 14.9078 23.9255 15.7478 24.4141 16.4338L23.2871 17.5608L18.4039 12.6762C19.2814 12.0387 20.2833 11.5931 21.3443 11.3683C22.4054 11.1435 23.5019 11.1445 24.5625 11.3714C23.9638 12.1169 23.6373 13.0444 23.6371 14.0006ZM24.2769 18.5506L25.4039 17.4236C26.0899 17.9136 26.9299 18.2006 27.8371 18.2006C28.7931 18.2008 29.7206 17.8748 30.4663 17.2766C30.5792 17.8011 30.6362 18.3424 30.6371 18.9006C30.6371 20.5946 30.0897 22.1626 29.1615 23.4352L24.2769 18.5506ZM28.2347 24.488L23.2871 19.5404L22.4401 20.3874C23.8961 22.047 24.7895 24.1249 24.9923 26.3234C26.2243 25.9832 27.3331 25.342 28.2347 24.488ZM15.5129 16.8454C15.8531 15.6134 16.4929 14.5046 17.3469 13.603L22.2973 18.5506L21.4503 19.3976C19.7906 17.9416 17.7114 17.0482 15.5129 16.8454ZM13.1371 18.2006C12.5802 18.2006 12.046 18.4218 11.6522 18.8157C11.2584 19.2095 11.0371 19.7436 11.0371 20.3006V21.7006C11.0371 24.1141 11.9959 26.4287 13.7024 28.1353C15.409 29.8418 17.7236 30.8006 20.1371 30.8006H21.5371C22.0941 30.8006 22.6282 30.5793 23.022 30.1855C23.4159 29.7917 23.6371 29.2575 23.6371 28.7006V27.3006C23.6371 24.8871 22.6784 22.5725 20.9718 20.8659C19.2652 19.1593 16.9506 18.2006 14.5371 18.2006H13.1371ZM15.7915 22.955C15.8565 22.8898 15.9338 22.8381 16.0188 22.8028C16.1039 22.7675 16.195 22.7493 16.2871 22.7493C16.3792 22.7493 16.4704 22.7675 16.5554 22.8028C16.6404 22.8381 16.7177 22.8898 16.7827 22.955L18.8827 25.055C18.9478 25.1201 18.9994 25.1973 19.0346 25.2824C19.0699 25.3674 19.088 25.4585 19.088 25.5506C19.088 25.6426 19.0699 25.7338 19.0346 25.8188C18.9994 25.9038 18.9478 25.9811 18.8827 26.0462C18.8176 26.1113 18.7404 26.1629 18.6553 26.1981C18.5703 26.2333 18.4792 26.2515 18.3871 26.2515C18.2951 26.2515 18.2039 26.2333 18.1189 26.1981C18.0339 26.1629 17.9566 26.1113 17.8915 26.0462L15.7915 23.9462C15.7263 23.8812 15.6746 23.8039 15.6393 23.7189C15.604 23.6338 15.5859 23.5427 15.5859 23.4506C15.5859 23.3585 15.604 23.2673 15.6393 23.1823C15.6746 23.0973 15.7263 23.02 15.7915 22.955Z" fill="black"/>
<circle cx="63" cy="21" r="19.4726" stroke="white" stroke-width="3.0547"/>
<path d="M71.9847 15.7968C71.6947 15.1389 71.3139 14.5249 70.8535 13.9726L68.4133 16.4128C68.9846 16.7509 69.6575 16.8745 70.3117 16.7617C70.9658 16.6488 71.5584 16.3067 71.9833 15.7968M67.4221 15.423L69.8623 12.9828C69.3105 12.5225 68.6969 12.1417 68.0395 11.8516C67.5292 12.2766 67.1869 12.8694 67.074 13.5239C66.9612 14.1783 67.0851 14.8516 67.4235 15.423M65.6371 14.0006C65.6371 14.9078 65.9255 15.7478 66.4141 16.4338L65.2871 17.5608L60.4039 12.6762C61.2814 12.0387 62.2833 11.5931 63.3443 11.3683C64.4054 11.1435 65.5019 11.1445 66.5625 11.3714C65.9638 12.1169 65.6373 13.0444 65.6371 14.0006ZM66.2769 18.5506L67.4039 17.4236C68.0899 17.9136 68.9299 18.2006 69.8371 18.2006C70.7931 18.2008 71.7206 17.8748 72.4663 17.2766C72.5792 17.8011 72.6362 18.3424 72.6371 18.9006C72.6371 20.5946 72.0897 22.1626 71.1615 23.4352L66.2769 18.5506ZM70.2347 24.488L65.2871 19.5404L64.4401 20.3874C65.8961 22.047 66.7895 24.1249 66.9923 26.3234C68.2243 25.9832 69.3331 25.342 70.2347 24.488ZM57.5129 16.8454C57.8531 15.6134 58.4929 14.5046 59.3469 13.603L64.2973 18.5506L63.4503 19.3976C61.7906 17.9416 59.7114 17.0482 57.5129 16.8454ZM55.1371 18.2006C54.5802 18.2006 54.046 18.4218 53.6522 18.8157C53.2584 19.2095 53.0371 19.7436 53.0371 20.3006V21.7006C53.0371 24.1141 53.9959 26.4287 55.7024 28.1353C57.409 29.8418 59.7236 30.8006 62.1371 30.8006H63.5371C64.0941 30.8006 64.6282 30.5793 65.022 30.1855C65.4159 29.7917 65.6371 29.2575 65.6371 28.7006V27.3006C65.6371 24.8871 64.6784 22.5725 62.9718 20.8659C61.2652 19.1593 58.9506 18.2006 56.5371 18.2006H55.1371ZM57.7915 22.955C57.8565 22.8898 57.9338 22.8381 58.0188 22.8028C58.1039 22.7675 58.195 22.7493 58.2871 22.7493C58.3792 22.7493 58.4704 22.7675 58.5554 22.8028C58.6404 22.8381 58.7177 22.8898 58.7827 22.955L60.8827 25.055C60.9478 25.1201 60.9994 25.1973 61.0346 25.2824C61.0699 25.3674 61.088 25.4585 61.088 25.5506C61.088 25.6426 61.0699 25.7338 61.0346 25.8188C60.9994 25.9038 60.9478 25.9811 60.8827 26.0462C60.8176 26.1113 60.7404 26.1629 60.6553 26.1981C60.5703 26.2333 60.4792 26.2515 60.3871 26.2515C60.2951 26.2515 60.2039 26.2333 60.1189 26.1981C60.0339 26.1629 59.9566 26.1113 59.8915 26.0462L57.7915 23.9462C57.7263 23.8812 57.6746 23.8039 57.6393 23.7189C57.604 23.6338 57.5859 23.5427 57.5859 23.4506C57.5859 23.3585 57.604 23.2673 57.6393 23.1823C57.6746 23.0973 57.7263 23.02 57.7915 22.955Z" fill="white"/>
</svg>
