<svg width="96" height="48" viewBox="0 0 96 48" fill="none" xmlns="http://www.w3.org/2000/svg">
<path d="M17.6227 30C18.7833 32.3667 20.5079 34.2914 22.795 35.7754C25.082 37.2594 27.6759 38.0013 30.5774 38C32.0109 38 33.385 37.8003 34.6997 37.4004C36.0144 37.0004 37.2348 36.4499 38.3599 35.75C38.8378 35.45 39.3677 35.3163 39.948 35.3496C40.528 35.383 41.0225 35.6002 41.432 36C41.8417 36.3667 42.0302 36.8263 41.9961 37.377C41.9617 37.9269 41.7052 38.3675 41.228 38.6992C39.6919 39.7659 38.0272 40.5837 36.2357 41.1504C34.4445 41.7169 32.5584 42 30.5774 42C26.5495 42 22.9652 40.8836 19.8248 38.6504C16.6843 36.4171 14.4656 33.5333 13.1684 30H17.6227Z" fill="black"/>
<path d="M16.3946 22C16.2581 22.9 16.2065 23.693 16.2406 24.377C16.2747 25.0605 16.3264 25.6015 16.3946 26H12.2464C12.144 25.2 12.1026 24.458 12.1204 23.7754C12.1381 23.093 12.1795 22.5012 12.2464 22H16.3946Z" fill="black"/>
<path d="M30.5774 6C32.557 6 34.4432 6.28309 36.2357 6.84961C38.0285 7.41628 39.6933 8.23411 41.228 9.30078C41.7055 9.63406 41.962 10.0765 41.9961 10.627C42.0299 11.1772 41.8414 11.6349 41.432 12C41.0225 12.3998 40.528 12.6095 39.948 12.627C39.3677 12.6443 38.8378 12.5006 38.3599 12.1992C37.2336 11.4994 36.0129 10.9588 34.6997 10.5762C33.3863 10.1936 32.0123 10.0013 30.5774 10C27.6759 10 25.082 10.7426 22.795 12.2266C20.5079 13.7106 18.7833 15.6347 17.6227 18H13.1684C14.4656 14.4667 16.6843 11.5829 19.8248 9.34961C22.9652 7.11637 26.5495 6 30.5774 6Z" fill="black"/>
<path d="M28.5293 26C29.1096 26 29.5962 26.1922 29.9894 26.5762C30.3826 26.9602 30.5788 27.4347 30.5774 28C30.5761 28.5653 30.3793 29.0405 29.9874 29.4258C29.5955 29.8111 29.1096 30.0027 28.5293 30H17.7347C17.1249 28.7576 16.6992 27.4133 16.4906 26H28.5293Z" fill="black"/>
<path d="M12.1584 26C12.3145 27.3869 12.6319 28.7255 13.0904 30H8.04813C7.46783 30 6.98191 29.8078 6.59004 29.4238C6.19817 29.0398 6.00137 28.5653 6.00001 28C5.99864 27.4347 6.19544 26.9602 6.59004 26.5762C6.98464 26.1922 7.47056 26 8.04813 26H12.1584Z" fill="black"/>
<path d="M28.5293 18C29.1096 18 29.5962 18.1922 29.9894 18.5762C30.3826 18.9602 30.5788 19.4347 30.5774 20C30.5761 20.5653 30.3793 21.0405 29.9874 21.4258C29.5955 21.8111 29.1096 22.0027 28.5293 22H16.4906C16.6992 20.5867 17.1249 19.2424 17.7347 18H28.5293Z" fill="black"/>
<path d="M13.0904 18C12.6319 19.2745 12.3145 20.6131 12.1584 22H8.04813C7.46783 22 6.98191 21.8078 6.59004 21.4238C6.19817 21.0398 6.00137 20.5653 6.00001 20C5.99864 19.4347 6.19544 18.9602 6.59004 18.5762C6.98464 18.1922 7.47056 18 8.04813 18H13.0904Z" fill="black"/>
<path d="M65.6227 30C66.7833 32.3667 68.5079 34.2914 70.795 35.7754C73.082 37.2594 75.6759 38.0013 78.5774 38C80.0109 38 81.385 37.8003 82.6997 37.4004C84.0144 37.0004 85.2348 36.4499 86.3599 35.75C86.8378 35.45 87.3677 35.3163 87.948 35.3496C88.528 35.383 89.0225 35.6002 89.432 36C89.8417 36.3667 90.0302 36.8263 89.9961 37.377C89.9617 37.9269 89.7052 38.3675 89.228 38.6992C87.6919 39.7659 86.0272 40.5837 84.2357 41.1504C82.4445 41.7169 80.5584 42 78.5774 42C74.5495 42 70.9652 40.8836 67.8248 38.6504C64.6843 36.4171 62.4656 33.5333 61.1684 30H65.6227Z" fill="#FEEFE3"/>
<path d="M64.3946 22C64.2581 22.9 64.2065 23.693 64.2406 24.377C64.2747 25.0605 64.3264 25.6015 64.3946 26H60.2464C60.144 25.2 60.1026 24.458 60.1204 23.7754C60.1381 23.093 60.1795 22.5012 60.2464 22H64.3946Z" fill="#FEEFE3"/>
<path d="M78.5774 6C80.557 6 82.4432 6.28309 84.2357 6.84961C86.0285 7.41628 87.6933 8.23411 89.228 9.30078C89.7055 9.63406 89.962 10.0765 89.9961 10.627C90.0299 11.1772 89.8414 11.6349 89.432 12C89.0225 12.3998 88.528 12.6095 87.948 12.627C87.3677 12.6443 86.8378 12.5006 86.3599 12.1992C85.2336 11.4994 84.0129 10.9588 82.6997 10.5762C81.3863 10.1936 80.0123 10.0013 78.5774 10C75.6759 10 73.082 10.7426 70.795 12.2266C68.5079 13.7106 66.7833 15.6347 65.6227 18H61.1684C62.4656 14.4667 64.6843 11.5829 67.8248 9.34961C70.9652 7.11637 74.5495 6 78.5774 6Z" fill="#FEEFE3"/>
<path d="M76.5293 26C77.1096 26 77.5962 26.1922 77.9894 26.5762C78.3826 26.9602 78.5788 27.4347 78.5774 28C78.5761 28.5653 78.3793 29.0405 77.9874 29.4258C77.5955 29.8111 77.1096 30.0027 76.5293 30H65.7347C65.1249 28.7576 64.6992 27.4133 64.4906 26H76.5293Z" fill="#FEEFE3"/>
<path d="M60.1584 26C60.3145 27.3869 60.6319 28.7255 61.0904 30H56.0481C55.4678 30 54.9819 29.8078 54.59 29.4238C54.1982 29.0398 54.0014 28.5653 54 28C53.9986 27.4347 54.1954 26.9602 54.59 26.5762C54.9846 26.1922 55.4706 26 56.0481 26H60.1584Z" fill="#FEEFE3"/>
<path d="M76.5293 18C77.1096 18 77.5962 18.1922 77.9894 18.5762C78.3826 18.9602 78.5788 19.4347 78.5774 20C78.5761 20.5653 78.3793 21.0405 77.9874 21.4258C77.5955 21.8111 77.1096 22.0027 76.5293 22H64.4906C64.6992 20.5867 65.1249 19.2424 65.7347 18H76.5293Z" fill="#FEEFE3"/>
<path d="M61.0904 18C60.6319 19.2745 60.3145 20.6131 60.1584 22H56.0481C55.4678 22 54.9819 21.8078 54.59 21.4238C54.1982 21.0398 54.0014 20.5653 54 20C53.9986 19.4347 54.1954 18.9602 54.59 18.5762C54.9846 18.1922 55.4706 18 56.0481 18H61.0904Z" fill="#FEEFE3"/>
</svg>
