<svg width="84" height="42" viewBox="0 0 84 42" fill="none" xmlns="http://www.w3.org/2000/svg">
<circle cx="21" cy="21" r="19.4726" stroke="black" stroke-width="3.0547"/>
<path d="M11.0775 26.3525L8.17645 16.2136H10.5181L12.1964 23.2584H12.2805L14.1321 16.2136H16.1371L17.9837 23.2732H18.0728L19.7511 16.2136H22.0927L19.1916 26.3525H17.1025L15.1717 19.7236H15.0925L13.1667 26.3525H11.0775ZM31.614 19.7632H29.4457C29.406 19.4827 29.3252 19.2335 29.2031 19.0157C29.081 18.7946 28.9242 18.6064 28.7328 18.4513C28.5413 18.2962 28.3202 18.1774 28.0694 18.0949C27.8218 18.0124 27.5529 17.9711 27.2624 17.9711C26.7376 17.9711 26.2805 18.1015 25.8911 18.3622C25.5016 18.6196 25.1996 18.9959 24.9851 19.4909C24.7706 19.9827 24.6633 20.5801 24.6633 21.2831C24.6633 22.0059 24.7706 22.6132 24.9851 23.1049C25.203 23.5967 25.5066 23.968 25.896 24.2188C26.2855 24.4696 26.736 24.5951 27.2476 24.5951C27.5347 24.5951 27.8004 24.5571 28.0446 24.4812C28.2922 24.4053 28.5116 24.2947 28.7031 24.1495C28.8945 24.001 29.0529 23.8211 29.1783 23.6099C29.307 23.3987 29.3961 23.1577 29.4457 22.8871L31.614 22.897C31.5579 23.3623 31.4177 23.8112 31.1932 24.2436C30.9721 24.6726 30.6734 25.0571 30.2972 25.3971C29.9242 25.7337 29.4787 26.001 28.9605 26.1991C28.4456 26.3938 27.8631 26.4912 27.2129 26.4912C26.3086 26.4912 25.5 26.2865 24.7871 25.8773C24.0775 25.468 23.5164 24.8756 23.1039 24.1C22.6946 23.3244 22.49 22.3854 22.49 21.2831C22.49 20.1774 22.6979 19.2368 23.1138 18.4612C23.5296 17.6856 24.094 17.0948 24.8069 16.6889C25.5198 16.2796 26.3218 16.075 27.2129 16.075C27.8004 16.075 28.345 16.1575 28.8466 16.3225C29.3516 16.4876 29.7988 16.7285 30.1882 17.0453C30.5777 17.3589 30.8945 17.7434 31.1388 18.1988C31.3863 18.6543 31.5447 19.1758 31.614 19.7632Z" fill="black"/>
<circle cx="63" cy="21" r="19.4726" stroke="white" stroke-width="3.0547"/>
<path d="M53.0775 26.3525L50.1764 16.2136H52.5181L54.1964 23.2584H54.2805L56.1321 16.2136H58.1371L59.9837 23.2732H60.0728L61.7511 16.2136H64.0927L61.1916 26.3525H59.1025L57.1717 19.7236H57.0925L55.1667 26.3525H53.0775ZM73.614 19.7632H71.4457C71.406 19.4827 71.3252 19.2335 71.2031 19.0157C71.081 18.7946 70.9242 18.6064 70.7328 18.4513C70.5413 18.2962 70.3202 18.1774 70.0694 18.0949C69.8218 18.0124 69.5529 17.9711 69.2624 17.9711C68.7376 17.9711 68.2805 18.1015 67.8911 18.3622C67.5016 18.6196 67.1996 18.9959 66.9851 19.4909C66.7706 19.9827 66.6633 20.5801 66.6633 21.2831C66.6633 22.0059 66.7706 22.6132 66.9851 23.1049C67.203 23.5967 67.5066 23.968 67.896 24.2188C68.2855 24.4696 68.736 24.5951 69.2476 24.5951C69.5347 24.5951 69.8004 24.5571 70.0446 24.4812C70.2922 24.4053 70.5116 24.2947 70.7031 24.1495C70.8945 24.001 71.0529 23.8211 71.1783 23.6099C71.307 23.3987 71.3961 23.1577 71.4457 22.8871L73.614 22.897C73.5579 23.3623 73.4177 23.8112 73.1932 24.2436C72.9721 24.6726 72.6734 25.0571 72.2972 25.3971C71.9242 25.7337 71.4787 26.001 70.9605 26.1991C70.4456 26.3938 69.8631 26.4912 69.2129 26.4912C68.3086 26.4912 67.5 26.2865 66.7871 25.8773C66.0775 25.468 65.5164 24.8756 65.1039 24.1C64.6946 23.3244 64.49 22.3854 64.49 21.2831C64.49 20.1774 64.6979 19.2368 65.1138 18.4612C65.5296 17.6856 66.094 17.0948 66.8069 16.6889C67.5198 16.2796 68.3218 16.075 69.2129 16.075C69.8004 16.075 70.345 16.1575 70.8466 16.3225C71.3516 16.4876 71.7988 16.7285 72.1882 17.0453C72.5777 17.3589 72.8945 17.7434 73.1388 18.1988C73.3863 18.6543 73.5447 19.1758 73.614 19.7632Z" fill="white"/>
</svg>
