<svg width="96" height="48" viewBox="0 0 96 48" fill="none" xmlns="http://www.w3.org/2000/svg">
<path d="M40.2362 24C40.2362 15.033 32.967 7.76376 24 7.76376C15.033 7.76376 7.76376 15.033 7.76376 24C7.76376 32.967 15.033 40.2362 24 40.2362V43C13.5066 43 5 34.4934 5 24C5 13.5066 13.5066 5 24 5C34.4934 5 43 13.5066 43 24C43 34.4934 34.4934 43 24 43V40.2362C32.967 40.2362 40.2362 32.967 40.2362 24Z" fill="black"/>
<path d="M35.3098 22.1092H33.1989C33.1603 21.8361 33.0816 21.5935 32.9627 21.3814C32.8438 21.1662 32.6912 20.983 32.5049 20.832C32.3185 20.681 32.1033 20.5654 31.8591 20.485C31.6181 20.4047 31.3563 20.3645 31.0735 20.3645C30.5627 20.3645 30.1177 20.4915 29.7385 20.7453C29.3594 20.9959 29.0654 21.3622 28.8566 21.8441C28.6477 22.3228 28.5433 22.9044 28.5433 23.5887C28.5433 24.2924 28.6477 24.8835 28.8566 25.3623C29.0686 25.841 29.3642 26.2024 29.7434 26.4466C30.1225 26.6908 30.5611 26.8129 31.0591 26.8129C31.3386 26.8129 31.5972 26.776 31.835 26.7021C32.0759 26.6282 32.2896 26.5205 32.476 26.3792C32.6623 26.2346 32.8165 26.0595 32.9386 25.8538C33.0639 25.6482 33.1507 25.4137 33.1989 25.1502L35.3098 25.1599C35.2551 25.6129 35.1186 26.0498 34.9001 26.4707C34.6848 26.8884 34.3941 27.2627 34.0278 27.5936C33.6647 27.9214 33.231 28.1816 32.7266 28.3744C32.2253 28.564 31.6583 28.6587 31.0253 28.6587C30.145 28.6587 29.3578 28.4595 28.6638 28.0611C27.973 27.6627 27.4268 27.086 27.0252 26.331C26.6268 25.5759 26.4276 24.6618 26.4276 23.5887C26.4276 22.5124 26.63 21.5967 27.0349 20.8417C27.4397 20.0866 27.9891 19.5115 28.6831 19.1163C29.3771 18.7179 30.1578 18.5187 31.0253 18.5187C31.5972 18.5187 32.1274 18.599 32.6157 18.7597C33.1073 18.9203 33.5427 19.1549 33.9218 19.4633C34.3009 19.7686 34.6093 20.1429 34.8471 20.5862C35.0881 21.0296 35.2423 21.5373 35.3098 22.1092Z" fill="black"/>
<path d="M15.3177 28.5238L12.4935 18.6537H14.7731L16.4069 25.5117H16.4888L18.2913 18.6537H20.2431L22.0408 25.5261H22.1275L23.7613 18.6537H26.0409L23.2167 28.5238H21.1829L19.3033 22.0706H19.2262L17.3515 28.5238H15.3177Z" fill="black"/>
<path d="M88.2362 24C88.2362 15.033 80.967 7.76376 72 7.76376C63.033 7.76376 55.7638 15.033 55.7638 24C55.7638 32.967 63.033 40.2362 72 40.2362V43C61.5066 43 53 34.4934 53 24C53 13.5066 61.5066 5 72 5C82.4934 5 91 13.5066 91 24C91 34.4934 82.4934 43 72 43V40.2362C80.967 40.2362 88.2362 32.967 88.2362 24Z" fill="#FEEFE3"/>
<path d="M83.3098 22.1092H81.1989C81.1603 21.8361 81.0816 21.5935 80.9627 21.3814C80.8438 21.1662 80.6912 20.983 80.5049 20.832C80.3185 20.681 80.1033 20.5654 79.8591 20.485C79.6181 20.4047 79.3563 20.3645 79.0735 20.3645C78.5627 20.3645 78.1177 20.4915 77.7385 20.7453C77.3594 20.9959 77.0654 21.3622 76.8566 21.8441C76.6477 22.3228 76.5433 22.9044 76.5433 23.5887C76.5433 24.2924 76.6477 24.8835 76.8566 25.3623C77.0686 25.841 77.3642 26.2024 77.7434 26.4466C78.1225 26.6908 78.5611 26.8129 79.0591 26.8129C79.3386 26.8129 79.5972 26.776 79.835 26.7021C80.0759 26.6282 80.2896 26.5205 80.476 26.3792C80.6623 26.2346 80.8165 26.0595 80.9386 25.8538C81.0639 25.6482 81.1507 25.4137 81.1989 25.1502L83.3098 25.1599C83.2551 25.6129 83.1186 26.0498 82.9001 26.4707C82.6848 26.8884 82.3941 27.2627 82.0278 27.5936C81.6647 27.9214 81.231 28.1816 80.7266 28.3744C80.2253 28.564 79.6583 28.6587 79.0253 28.6587C78.145 28.6587 77.3578 28.4595 76.6638 28.0611C75.973 27.6627 75.4268 27.086 75.0252 26.331C74.6268 25.5759 74.4276 24.6618 74.4276 23.5887C74.4276 22.5124 74.63 21.5967 75.0349 20.8417C75.4397 20.0866 75.9891 19.5115 76.6831 19.1163C77.3771 18.7179 78.1578 18.5187 79.0253 18.5187C79.5972 18.5187 80.1274 18.599 80.6157 18.7597C81.1073 18.9203 81.5427 19.1549 81.9218 19.4633C82.3009 19.7686 82.6093 20.1429 82.8471 20.5862C83.0881 21.0296 83.2423 21.5373 83.3098 22.1092Z" fill="#FEEFE3"/>
<path d="M63.3177 28.5238L60.4935 18.6537H62.7731L64.4069 25.5117H64.4888L66.2913 18.6537H68.2431L70.0408 25.5261H70.1275L71.7613 18.6537H74.0409L71.2167 28.5238H69.1829L67.3033 22.0706H67.2262L65.3515 28.5238H63.3177Z" fill="#FEEFE3"/>
</svg>
